<?xml version="1.0" encoding="utf-8"?>
<!-- Generator: Adobe Illustrator 16.0.0, SVG Export Plug-In . SVG Version: 6.00 Build 0)  -->
<!DOCTYPE svg PUBLIC "-//W3C//DTD SVG 1.1//EN" "http://www.w3.org/Graphics/SVG/1.1/DTD/svg11.dtd">
<svg version="1.1" id="Layer_1" xmlns="http://www.w3.org/2000/svg" xmlns:xlink="http://www.w3.org/1999/xlink" x="0px" y="0px"
	 width="185px" height="185px" viewBox="0 0 185 185" enable-background="new 0 0 185 185" xml:space="preserve">
<g>
	<path fill="none" stroke="#F193A8" stroke-width="5" stroke-linecap="round" stroke-linejoin="round" stroke-miterlimit="10" d="
		M128.585,85.672l0.001-0.002c-9.413-10.17-23.791-26.702-23.791-26.702c-0.605-0.81-1.447-1.535-2.343-2.175
		c-3.583-3.051-8.288-3.916-9.622-3.91c-1.566-0.006-7.768,1.187-11.352,5.72c-0.104,0.122-0.231,0.235-0.325,0.36
		c0,0-13.089,19.412-23.774,26.715l0.001,0.006c-0.58,0.383-0.966,1.043-0.966,1.785c0,1.176,0.967,2.144,2.143,2.144
		c0,0,7.246,1.448,21.515-16.548c1.034,4.145,2.067,8.29,3.102,12.436c-4.42,3.968-9.776,9.84-14,18
		c-11.395,22.02-5.933,44.103-4.069,50.588L78.664,162c0-24.768,8.079-48.645,14.13-63.06c0.012-0.026,0.024-0.055,0.036-0.081
		c0.262,0.623,0.529,1.27,0.798,1.928c5.945,14.555,13.367,37.474,13.367,61.213l13.561-7.912
		c1.841-6.633,7.033-28.639-4.383-50.588c-4.232-8.14-9.575-14.013-14-18c1.16-4.241,2.32-8.483,3.479-12.726
		c7.567,9.595,13.18,13.753,16.808,15.539C124.891,89.51,127.809,88.268,128.585,85.672z M93.984,53.15
		c0.254,0.044,0.508,0.073,0.755,0.146C94.497,53.224,94.237,53.197,93.984,53.15z M95.971,53.785
		c0.235,0.116,0.456,0.258,0.682,0.396C96.43,54.041,96.205,53.904,95.971,53.785z M89.204,54.047
		c0.192-0.114,0.39-0.209,0.591-0.305C89.596,53.84,89.396,53.933,89.204,54.047z M91.059,53.237
		c0.06-0.014,0.121-0.014,0.181-0.028C91.18,53.224,91.118,53.224,91.059,53.237z"/>
	
		<circle fill="none" stroke="#F193A8" stroke-width="5" stroke-linecap="round" stroke-linejoin="round" stroke-miterlimit="10" cx="92.938" cy="36.844" r="13.844"/>
	<path fill="#FFFFFF" d="M117.637,107.744c-3.029-8.008-8.502-15.521-14.419-21.676c8.869-15.264,6.089-24.686,0.74-29.201
		c-5.863-4.949-14.485-5.436-20.593-0.79c-5.494,4.181-10.19,13.509-0.614,29.991c0.132,0.227-5.194,6.12-5.54,6.572
		c-3.502,4.578-6.737,9.527-8.813,14.93c-1.904,4.956-2.94,10.889,0.087,15.631c4.295,6.73,13.916,8.121,21.159,8.68
		c8.44,0.648,21.159-0.332,27.02-7.551C120.55,119.545,119.671,113.121,117.637,107.744"/>
	<path fill="none" stroke="#F193A8" stroke-width="4" stroke-miterlimit="10" d="M117.637,107.744
		c-3.029-8.008-8.502-15.521-14.419-21.676c8.869-15.264,6.089-24.686,0.74-29.201c-5.863-4.949-14.485-5.436-20.593-0.79
		c-5.494,4.181-10.19,13.509-0.614,29.991c0.132,0.227-5.194,6.12-5.54,6.572c-3.502,4.578-6.737,9.527-8.813,14.93
		c-1.904,4.956-2.94,10.889,0.087,15.631c4.295,6.73,13.916,8.121,21.159,8.68c8.44,0.648,21.159-0.332,27.02-7.551
		C120.55,119.545,119.671,113.121,117.637,107.744z"/>
	<path fill="#F193A8" d="M92.973,126.157c-2.465,0-15.813,0-19.322-7.772c-0.383-0.844-1.448-3.206-0.578-5.484
		c3.546-9.281,36.256-9.281,39.802,0c0.87,2.278-0.196,4.641-0.578,5.484C108.786,126.157,95.439,126.157,92.973,126.157"/>
	<path fill="#F193A8" d="M98.17,75.992c-1.047-1.257-2.164-2.494-3.224-3.769c0.728-1.202,1.332-2.47,1.685-3.854
		c0.68-2.668,0.488-6.608-3.051-6.847c-3.051-0.206-4.913,2.871-4.707,5.615c0.141,1.886,1.08,3.666,2.301,5.329
		c-1.068,1.435-2.272,2.775-3.398,4.16c-1.205,1.484,0.902,3.617,2.119,2.119c1.046-1.289,2.177-2.571,3.226-3.91
		c1.033,1.162,2.082,2.256,2.932,3.274C97.288,79.592,99.398,77.463,98.17,75.992 M92.952,69.61
		c-0.73-1.104-1.438-2.512-0.991-3.834c0.189-0.559,0.854-1.555,1.589-1.225C94.848,65.135,93.8,67.885,92.952,69.61"/>
</g>
</svg>
