<?xml version="1.0" encoding="utf-8"?>
<!-- Generator: Adobe Illustrator 16.0.0, SVG Export Plug-In . SVG Version: 6.00 Build 0)  -->
<!DOCTYPE svg PUBLIC "-//W3C//DTD SVG 1.1//EN" "http://www.w3.org/Graphics/SVG/1.1/DTD/svg11.dtd">
<svg version="1.1" id="Layer_1" xmlns="http://www.w3.org/2000/svg" xmlns:xlink="http://www.w3.org/1999/xlink" x="0px" y="0px"
	 width="185px" height="185px" viewBox="0 0 185 185" enable-background="new 0 0 185 185" xml:space="preserve">
<g>
	<path fill="#F193A8" d="M74.777,75.019c1.655,0.411,3.811,0.617,6.422,0.633v4.515c0,1.354,1.101,2.456,2.455,2.456
		c1.353,0,2.45-1.102,2.45-2.456v-4.943l0.19-0.017c1.578-0.309,2.984-0.834,4.21-1.573c1.231-0.733,2.209-1.737,2.952-3.011
		c0.733-1.268,1.103-2.867,1.103-4.789c0-2.582-0.786-4.723-2.36-6.42c-1.578-1.7-4.026-3.207-7.349-4.518
		c-2.088-0.74-3.622-1.468-4.605-2.185c-0.985-0.716-1.478-1.668-1.478-2.854c0-1.104,0.443-1.986,1.325-2.645
		c0.879-0.652,2.484-0.984,4.822-0.984c1.144,0,2.326,0.122,3.53,0.369c1.209,0.245,2.161,0.475,2.856,0.68
		c0.288,0.082,0.577-0.135,0.865-0.647c0.285-0.509,0.509-1.103,0.675-1.781c0.161-0.676,0.242-1.31,0.242-1.903
		c0-0.595-0.141-0.953-0.428-1.08c-0.332-0.082-0.676-0.185-1.049-0.307c-0.36-0.123-0.847-0.236-1.44-0.338
		s-1.349-0.186-2.274-0.245c-0.474-0.03-1.188-0.03-1.788-0.049v-5.011c0-1.354-1.098-2.451-2.45-2.451
		c-1.354,0-2.455,1.098-2.455,2.451v5.195c-0.813,0.115-1.586,0.267-2.276,0.479c-1.535,0.473-2.798,1.107-3.782,1.904
		c-0.983,0.798-1.706,1.75-2.178,2.856c-0.475,1.109-0.71,2.272-0.71,3.507c0,1.514,0.25,2.822,0.742,3.93
		c0.491,1.109,1.162,2.061,2.022,2.861c0.865,0.799,1.855,1.493,2.985,2.088c1.124,0.594,2.326,1.135,3.589,1.627
		c2.338,0.903,3.955,1.754,4.857,2.551c0.898,0.798,1.354,1.834,1.354,3.104c0,1.471-0.689,2.498-2.059,3.074
		c-1.371,0.568-3.039,0.857-5.008,0.857c-1.931,0-3.515-0.176-4.767-0.525c-1.243-0.346-2.407-0.701-3.467-1.074
		c-0.204-0.037-0.422,0.188-0.646,0.68c-0.229,0.492-0.407,1.054-0.557,1.685c-0.139,0.638-0.235,1.252-0.272,1.846
		c-0.045,0.595,0.02,0.974,0.186,1.14C71.865,74.152,73.053,74.591,74.777,75.019"/>
	<path fill="#F193A8" d="M82.822,93.417c19.418,0,35.212-15.798,35.212-35.212C118.034,38.792,102.24,23,82.822,23
		c-19.413,0-35.207,15.792-35.207,35.205C47.615,77.62,63.409,93.417,82.822,93.417 M82.822,29.542
		c15.807,0,28.67,12.857,28.67,28.663c0,15.81-12.863,28.67-28.67,28.67s-28.667-12.86-28.667-28.67
		C54.155,42.4,67.016,29.542,82.822,29.542"/>
	<path fill="#F193A8" d="M162.809,129.185c-7.205-3.954-23.1-13.102-24.346-13.996l-0.713-0.863
		c-4.708-5.736-17.231-21.004-49.376-10.15c-0.087,0.027-8.615,3.359-16.677,2.451c-1.231-0.133-2.489-0.375-3.709-0.6
		c-0.307-0.059-0.612-0.113-0.914-0.172c-2.967-2.316-14.771-11.459-19.027-13.32c-4.038-1.77-9.873-1.824-12.324-1.748
		c-2.303-1.344-7.936-3.987-12.432-0.941c-2.239,1.523-3.741,3.781-4.233,6.359c-0.657,3.455,0.439,7.293,3.252,11.422
		c0.78,1.134,19.364,28.095,44.152,39.875c5.157,2.451,13.216,3.746,20.25,3.231l31.551-4.401c2.879-0.332,7.876,0.215,9.021,1.047
		l17.218,13.289c1.139,0.873,2.522,1.332,3.934,1.332c0.448,0,0.899-0.043,1.346-0.139c1.852-0.391,3.433-1.572,4.335-3.232
		l11.232-20.723C167.034,134.792,165.895,130.885,162.809,129.185 M45.43,98.527c1.893,0.83,6.74,4.254,11.399,7.73
		c-1.563,0.477-2.872,1.117-4.045,1.837L40.832,97.542C42.51,97.714,44.195,97.99,45.43,98.527 M148.496,155.484l-17.084-13.177
		c-2.499-2.14-7.707-2.589-11.128-2.589c-1.27,0-2.291,0.059-2.839,0.122l-31.427,4.388c-5.724,0.424-12.601-0.656-16.746-2.632
		c-23.212-11.031-40.819-36.579-41.56-37.666c-2.241-3.281-2.448-5.345-2.227-6.501c0.169-0.887,0.664-1.616,1.473-2.166
		c1.048-0.689,3.229,0.027,4.833,0.839l17.467,15.425c-0.629,1.051-1.09,2.166-1.168,3.4c-0.314,4.859,3.965,9.052,11.451,11.209
		c14.502,4.179,38.585,4.621,39.604,4.638h0.056c1.782,0,3.243-1.429,3.269-3.22c0.029-1.799-1.408-3.29-3.214-3.322
		c-0.244-0.006-24.229-0.439-37.9-4.382c-5.213-1.499-6.794-3.685-6.74-4.51c0.052-0.786,1.818-2.669,6.961-3.46
		c1.179-0.178,3.229,0.203,5.211,0.572c1.375,0.256,2.79,0.519,4.181,0.679c9.655,1.081,19.392-2.708,19.647-2.818
		c27.708-9.347,37.418,2.486,42.079,8.163l0.786,0.952c1.587,1.854,25.936,15.358,26.116,15.358L148.496,155.484z"/>
</g>
</svg>
