<?xml version="1.0" encoding="utf-8"?>
<!-- Generator: Adobe Illustrator 16.0.0, SVG Export Plug-In . SVG Version: 6.00 Build 0)  -->
<!DOCTYPE svg PUBLIC "-//W3C//DTD SVG 1.1//EN" "http://www.w3.org/Graphics/SVG/1.1/DTD/svg11.dtd">
<svg version="1.1" id="Layer_1" xmlns="http://www.w3.org/2000/svg" xmlns:xlink="http://www.w3.org/1999/xlink" x="0px" y="0px"
	 width="185px" height="185px" viewBox="0 0 185 185" enable-background="new 0 0 185 185" xml:space="preserve">
<g>
	<path fill="none" stroke="#F193A8" stroke-width="5" stroke-linecap="round" stroke-linejoin="round" stroke-miterlimit="10" d="
		M128.103,85.672l0.001-0.002c-10.69-7.297-23.791-26.702-23.791-26.702c-0.606-0.81-1.447-1.535-2.343-2.175
		c-3.583-3.051-8.288-3.916-9.622-3.91c-1.567-0.006-7.769,1.187-11.352,5.72c-0.104,0.122-0.231,0.235-0.325,0.36
		c0,0-13.09,19.412-23.774,26.715l0.001,0.006c-0.58,0.383-0.967,1.043-0.967,1.785c0,1.176,0.968,2.144,2.144,2.144
		c0,0,7.246,1.448,21.514-16.548c0.801,2.426,2.036,5.131,3.813,8.146c-22.47,19.761-24.691,42.881-18.781,72.877L78.182,162
		c0-24.768,8.079-48.645,14.13-63.06c0.012-0.026,0.022-0.055,0.036-0.081c0.262,0.623,0.527,1.27,0.797,1.928
		c5.946,14.553,13.368,37.474,13.368,61.213l13.561-7.912c5.738-29.121,3.809-51.764-16.87-71.141
		c-0.621-0.582-1.256-1.162-1.911-1.736c0.226-0.383,0.439-0.758,0.647-1.129c1.505-2.695,2.531-5.105,3.229-7.307
		c14.436,18.301,21.76,16.825,21.76,16.825c1.175,0,2.142-0.967,2.141-2.144C129.069,86.715,128.683,86.058,128.103,85.672z
		 M93.501,53.15c0.254,0.044,0.508,0.073,0.756,0.146C94.015,53.224,93.755,53.197,93.501,53.15z M95.488,53.785
		c0.235,0.116,0.456,0.258,0.681,0.396C95.947,54.041,95.723,53.904,95.488,53.785z M88.722,54.047
		c0.192-0.114,0.39-0.209,0.591-0.305C89.113,53.84,88.914,53.933,88.722,54.047z M90.576,53.237c0.06-0.014,0.12-0.014,0.181-0.028
		C90.696,53.224,90.636,53.224,90.576,53.237z"/>
	
		<circle fill="none" stroke="#F193A8" stroke-width="5" stroke-linecap="round" stroke-linejoin="round" stroke-miterlimit="10" cx="92.455" cy="36.844" r="13.844"/>
</g>
</svg>
