<?xml version="1.0" encoding="utf-8"?>
<!-- Generator: Adobe Illustrator 16.0.0, SVG Export Plug-In . SVG Version: 6.00 Build 0)  -->
<!DOCTYPE svg PUBLIC "-//W3C//DTD SVG 1.1//EN" "http://www.w3.org/Graphics/SVG/1.1/DTD/svg11.dtd">
<svg version="1.1" id="Layer_1" xmlns="http://www.w3.org/2000/svg" xmlns:xlink="http://www.w3.org/1999/xlink" x="0px" y="0px"
	 width="185px" height="185px" viewBox="0 0 185 185" enable-background="new 0 0 185 185" xml:space="preserve">
<g>
	<path fill="#F193A8" d="M97.96,71.309l-1.109,0.844v17.294c-0.006,1.325-1.701,2.188-2.744,1.444L92.5,89.759l-1.611,1.132
		c-1.051,0.743-2.74-0.113-2.74-1.444V72.159l-1.107-0.845c-2.234-1.71-3.57-4.392-3.57-7.188V53.893
		c0-4.972,4.051-9.017,9.029-9.017c4.98,0,9.031,4.045,9.031,9.017v10.233C101.531,66.966,100.228,69.591,97.96,71.309 M92.5,28.606
		c2.265,0,4.111,1.837,4.111,4.105c0,2.271-1.847,4.117-4.111,4.117c-2.268,0-4.107-1.847-4.107-4.117
		C88.392,30.443,90.232,28.606,92.5,28.606 M102.458,89.446V74.845c2.95-2.749,4.68-6.656,4.68-10.719V53.893
		c0-6.008-3.651-11.172-8.848-13.42c2.37-1.772,3.927-4.579,3.927-7.761c0-5.354-4.357-9.711-9.717-9.711
		c-5.354,0-9.714,4.356-9.714,9.711c0,3.182,1.56,5.986,3.926,7.761c-5.198,2.245-8.847,7.412-8.847,13.42v10.233
		c0,4.052,1.724,7.959,4.674,10.715v14.605c0,4.059,3.301,7.359,7.359,7.359c0.902,0,1.78-0.159,2.602-0.473
		c0.82,0.313,1.702,0.473,2.6,0.473C99.156,96.806,102.458,93.505,102.458,89.446"/>
	<path fill="#F193A8" d="M83.017,123.988l-0.094,1.039c-0.07,0.897,0.029,20.423,0.088,31.366H66.576l1.227-18.752
		c-0.302-3.842-5.606-8.862-6.964-9.953l-21.714-16.387c-3.706-3.197-7.225-8.025-8.553-11.748
		c-7.367-20.717-2.565-46.899-2.359-48.002c0.635-3.348,1.76-4.727,2.598-5.295c0.64-0.435,1.39-0.576,2.199-0.412
		c1.063,0.205,1.942,1.965,2.422,3.432l1.239,19.932c-1.021,0.254-1.976,0.65-2.774,1.35c-3.131,2.761-3.075,7.896,0.152,13.732
		c6.256,11.322,20.581,26.187,21.188,26.815c1.085,1.11,2.859,1.144,3.964,0.065c1.112-1.078,1.147-2.852,0.067-3.963
		c-0.145-0.148-14.416-14.953-20.313-25.627c-2.25-4.068-1.882-6.347-1.354-6.813c0.504-0.453,2.732-0.513,6.32,2.116
		c0.811,0.599,1.824,2.074,2.797,3.496c0.68,0.99,1.385,2.016,2.135,2.959c5.203,6.492,13.396,10.104,13.617,10.199
		C84.929,104.673,83.634,117.72,83.017,123.988 M42.222,59.005c0.649,1.654,1.506,6.666,2.224,11.598
		c-1.235-0.657-2.419-1.061-3.562-1.34l-0.85-13.646C40.949,56.737,41.804,57.931,42.222,59.005 M88.601,124.534
		c0.623-6.332,2.281-23.162-23.772-36.085c-0.071-0.026-7.261-3.19-11.595-8.616c-0.668-0.832-1.288-1.74-1.889-2.621l-0.451-0.646
		c-0.387-3.211-1.998-15.889-3.447-19.596c-1.379-3.52-4.885-7.09-6.41-8.534c-0.581-2.208-2.393-7.216-6.965-8.097
		c-2.271-0.439-4.551,0.019-6.416,1.279c-2.492,1.698-4.157,4.686-4.95,8.891c-0.22,1.166-5.289,28.798,2.588,50.928
		c1.646,4.615,5.733,10.286,10.31,14.23l21.789,16.45c1.946,1.55,4.645,4.906,4.82,5.558l-1.43,21.336
		c-0.049,0.771,0.221,1.531,0.75,2.103c0.531,0.563,1.271,0.886,2.047,0.886h22.252c0.745,0,1.461-0.293,1.988-0.826
		c0.523-0.532,0.82-1.248,0.814-1.992c-0.076-12.92-0.17-32.582-0.127-33.7L88.601,124.534z"/>
	<path fill="#F193A8" d="M154.42,99.558c-1.317,3.713-4.83,8.543-8.409,11.629l-21.912,16.553
		c-1.297,1.039-6.608,6.064-6.902,10.309l1.231,18.344h-16.442c0.063-10.943,0.16-30.465,0.089-31.367l-0.095-1.049
		c-0.617-6.269-1.894-19.311,20.424-30.377c0.343-0.156,8.539-3.77,13.74-10.262c0.75-0.943,1.459-1.965,2.135-2.956
		c0.974-1.424,1.988-2.896,2.798-3.493c3.587-2.628,5.815-2.568,6.319-2.117c0.529,0.463,0.897,2.742-1.354,6.813
		c-5.893,10.666-20.168,25.474-20.313,25.624c-1.078,1.111-1.045,2.885,0.068,3.964c1.11,1.076,2.898,1.045,3.961-0.067
		c0.608-0.629,14.938-15.494,21.19-26.811c3.229-5.841,3.284-10.975,0.153-13.734c-0.797-0.703-1.754-1.1-2.775-1.352l1.24-19.949
		c0.473-1.449,1.361-3.211,2.42-3.412c0.81-0.176,1.561-0.022,2.201,0.41c0.838,0.569,1.959,1.948,2.596,5.292
		C156.992,52.656,161.81,78.798,154.42,99.558 M142.775,59.007c0.418-1.076,1.274-2.268,2.188-3.39l-0.849,13.651
		c-1.147,0.273-2.327,0.682-3.563,1.334C141.269,65.669,142.129,60.66,142.775,59.007 M162.292,50.51
		c-0.792-4.204-2.458-7.194-4.949-8.891c-1.86-1.259-4.146-1.724-6.416-1.282c-4.573,0.883-6.385,5.893-6.965,8.098
		c-1.526,1.446-5.03,5.01-6.41,8.537c-1.45,3.705-3.061,16.385-3.448,19.594l-0.451,0.645c-0.603,0.883-1.219,1.792-1.889,2.624
		c-4.314,5.392-11.522,8.588-11.727,8.676c-25.907,12.854-24.26,29.683-23.641,36.015l0.088,0.893
		c0.05,1.184-0.045,20.842-0.121,33.764c-0.006,0.745,0.291,1.461,0.818,1.993c0.524,0.529,1.24,0.824,1.985,0.824h22.254
		c0.779,0,1.519-0.322,2.05-0.886c0.529-0.569,0.799-1.331,0.752-2.102l-1.437-20.908c0.181-1.08,2.88-4.436,4.756-5.936
		l21.989-16.615c4.451-3.832,8.539-9.51,10.171-14.113C167.591,79.263,162.509,51.671,162.292,50.51"/>
</g>
</svg>
