<?xml version="1.0" encoding="utf-8"?>
<!-- Generator: Adobe Illustrator 16.0.0, SVG Export Plug-In . SVG Version: 6.00 Build 0)  -->
<!DOCTYPE svg PUBLIC "-//W3C//DTD SVG 1.1//EN" "http://www.w3.org/Graphics/SVG/1.1/DTD/svg11.dtd">
<svg version="1.1" id="Layer_1" xmlns="http://www.w3.org/2000/svg" xmlns:xlink="http://www.w3.org/1999/xlink" x="0px" y="0px"
	 width="90px" height="90px" viewBox="0 0 90 90" enable-background="new 0 0 90 90" xml:space="preserve">
<g>
	<path fill="#E98596" d="M90,45c0,24.854-20.147,45-45,45S0,69.854,0,45C0,20.147,20.147,0,45,0S90,20.147,90,45"/>
	<path fill="#FFFFFF" d="M80.899,44.69C80.728,24.989,64.615,9.155,44.916,9.328C25.213,9.5,9.382,25.61,9.555,45.313
		c0.17,19.699,16.278,35.531,35.983,35.358C65.238,80.502,81.071,64.39,80.899,44.69"/>
	<path fill="#E9C7CD" d="M51.823,30.993c-0.002-0.222-0.118-13.45-0.118-13.45l-0.108,0.002L38.27,17.661
		c0,0,0.051,5.747,0.085,9.728c0.034,0.003,0.063-0.001,0.099,0.002c0,0,0.01-0.011,0.025-0.023
		c0.305,0.033,3.147,0.551,5.249,9.401c-8.343-2.096-9.111-5.064-9.181-5.535h-0.009c0.019-0.033,0.029-0.05,0.029-0.05
		s-0.002-0.017-0.006-0.041c-3.977,0.035-9.626,0.084-9.626,0.084l0.118,13.435c0,0,13.229-0.115,13.452-0.118
		c0.002,0.22,0.118,13.455,0.118,13.455l13.437-0.118c0,0-0.116-13.232-0.118-13.452c0.225-0.002,13.45-0.119,13.45-0.119
		l-0.115-13.435C65.275,30.875,52.048,30.99,51.823,30.993"/>
	<path fill="#E98596" d="M47.036,60.86l0.012,1.187l0.059-0.092c0.488-0.808,0.98-1.222,1.479-1.227
		c0.383-0.003,0.793,0.195,1.22,0.58l-0.534,0.913c-0.363-0.333-0.691-0.501-1.005-0.498c-0.322,0.003-0.611,0.163-0.849,0.488
		c-0.245,0.313-0.362,0.694-0.359,1.13l0.025,2.735l-1.041,0.01l-0.046-5.218L47.036,60.86z"/>
	<path fill="#E98596" d="M53.013,60.791c0.79-0.01,1.452,0.247,1.971,0.75c0.533,0.509,0.802,1.153,0.808,1.923
		c0.007,0.751-0.258,1.379-0.78,1.884c-0.53,0.502-1.189,0.749-2.001,0.756c-0.778,0.006-1.428-0.234-1.958-0.735
		c-0.527-0.501-0.8-1.128-0.805-1.887c-0.008-0.764,0.254-1.396,0.778-1.911C51.552,61.063,52.213,60.796,53.013,60.791
		 M52.962,61.724c-0.493,0.004-0.89,0.171-1.204,0.495c-0.317,0.332-0.466,0.75-0.462,1.253c0.004,0.494,0.166,0.9,0.496,1.217
		c0.328,0.313,0.743,0.466,1.248,0.46c0.503-0.004,0.916-0.163,1.229-0.489c0.327-0.319,0.484-0.73,0.481-1.232
		c-0.005-0.494-0.175-0.903-0.517-1.229C53.896,61.879,53.477,61.719,52.962,61.724"/>
	<path fill="#E98596" d="M56.718,65.617l-0.01-1.117c0.297,0.197,0.592,0.369,0.897,0.491c0.302,0.117,0.559,0.187,0.766,0.185
		c0.215-0.002,0.397-0.062,0.552-0.161c0.152-0.112,0.227-0.244,0.226-0.387c-0.002-0.151-0.054-0.278-0.149-0.379
		c-0.098-0.099-0.321-0.238-0.649-0.429c-0.669-0.364-1.109-0.681-1.313-0.943c-0.216-0.26-0.315-0.544-0.318-0.856
		c-0.003-0.396,0.148-0.725,0.458-0.984c0.315-0.254,0.712-0.389,1.204-0.394c0.511-0.004,1.032,0.142,1.57,0.426l0.009,1.017
		c-0.612-0.359-1.116-0.539-1.507-0.537c-0.199,0.002-0.357,0.046-0.482,0.131c-0.119,0.09-0.177,0.198-0.176,0.336
		c0.001,0.124,0.053,0.23,0.163,0.35c0.107,0.103,0.307,0.237,0.59,0.388l0.367,0.201c0.88,0.49,1.318,1.025,1.323,1.626
		c0.003,0.425-0.161,0.783-0.483,1.055c-0.342,0.279-0.768,0.417-1.287,0.421c-0.315,0.003-0.587-0.025-0.836-0.09
		C57.394,65.904,57.085,65.787,56.718,65.617"/>
	<path fill="#E98596" d="M64.689,62.783l0.021,2.222c0.002,0.18,0.062,0.266,0.186,0.264c0.123,0,0.323-0.09,0.592-0.271
		l0.006,0.622c-0.234,0.148-0.421,0.249-0.565,0.308c-0.143,0.052-0.289,0.077-0.443,0.078c-0.443,0.002-0.701-0.159-0.788-0.499
		c-0.433,0.345-0.904,0.514-1.396,0.518c-0.367,0.002-0.669-0.111-0.912-0.352c-0.247-0.237-0.369-0.536-0.373-0.908
		c-0.002-0.323,0.113-0.623,0.346-0.886c0.234-0.262,0.569-0.465,0.998-0.623l1.313-0.472l-0.001-0.276
		c-0.006-0.628-0.319-0.947-0.945-0.941c-0.563,0.007-1.104,0.305-1.633,0.89l-0.009-1.125c0.399-0.473,0.969-0.72,1.716-0.725
		c0.561-0.006,1.019,0.142,1.359,0.435c0.118,0.089,0.219,0.216,0.313,0.372c0.083,0.161,0.145,0.318,0.177,0.477
		C64.672,62.044,64.688,62.339,64.689,62.783 M63.691,64.91l-0.014-1.579l-0.685,0.282c-0.35,0.142-0.596,0.286-0.737,0.434
		c-0.143,0.144-0.215,0.322-0.213,0.537c0.002,0.223,0.071,0.398,0.206,0.532c0.146,0.138,0.319,0.201,0.538,0.199
		C63.118,65.312,63.418,65.181,63.691,64.91"/>
	<path fill="#E98596" d="M51.598,31.219c0,0-0.114-13.236-0.118-13.454c-0.218,0.002-12.762,0.111-12.981,0.113
		c0.001,0.126,0.038,4.362,0.07,8.047c10.002-0.697,13.121,31.552,13.121,31.552c-1.765-4.003-5.787-3.634-5.787-3.634
		c-1.139-24.369-6.428-26.401-7.321-26.569c0,0.038,0,0.073,0,0.111c0.602,0.131,3.192,1.162,5.146,9.382
		c-7.771-1.954-8.97-4.659-9.155-5.402c-0.04,0.001-0.081,0.001-0.123,0.002c0.175,0.737,1.346,3.531,9.303,5.517
		c0.244,1.024,0.473,2.159,0.688,3.41c-6.244-1.975-11.416-4.851-11.23-8.916c-3.687,0.031-7.921,0.069-8.046,0.07
		c0.001,0.216,0.109,12.767,0.112,12.982c0.223-0.003,13.453-0.118,13.453-0.118s0.116,13.236,0.117,13.457
		c0.219-0.002,12.763-0.111,12.983-0.112c-0.002-0.222-0.117-13.459-0.117-13.459s9.409-0.082,12.49-0.108
		c-2.48-0.253-8.848-1.002-15.177-2.531c-0.019-0.078-0.04-0.154-0.058-0.24c-0.331-1.269-0.671-2.458-1.014-3.58
		c3.219,0.524,7.203,0.925,12.136,1.118c0,0,1.524,2.99,5.018,5.226h0.059c-0.001-0.215-0.111-12.765-0.113-12.982
		C64.833,31.103,51.598,31.219,51.598,31.219"/>
	<path fill="#F5CED4" d="M37.977,37.483c-3.074-1.745-4.643-3.718-4.661-5.849c-0.002-0.121,0.007-0.245,0.012-0.368l-0.221-0.007
		c-0.169,2.364,1.43,4.528,4.762,6.426c1.758,0.998,4.003,1.923,6.695,2.767l-0.013-0.237
		C41.905,39.382,39.703,38.464,37.977,37.483"/>
	<path fill="#F5CED4" d="M34.546,31.234l-0.224,0.039c0.069,0.464,0.561,2.125,3.953,3.816c1.529,0.764,3.41,1.415,5.644,1.962
		l-0.047-0.25C35.394,34.709,34.615,31.704,34.546,31.234"/>
	<path fill="#F5CED4" d="M65.274,44.308l0.067-0.206c-3.552-2.207-5.132-5.271-5.147-5.303l-0.03-0.058L60.1,38.74
		c-5.027-0.191-9.06-0.6-12.303-1.14l0.069,0.243c3.457,0.568,7.521,0.945,12.162,1.124c0.215,0.406,1.726,3.032,4.813,5.078
		c-1.814-0.175-8.896-0.925-15.84-2.599c-0.047-0.015-0.088-0.025-0.126-0.038l0.055,0.246c0.011,0.005,0.013,0.005,0.021,0.007
		C56.972,43.6,65.191,44.303,65.274,44.308"/>
	<path fill="#F5CED4" d="M38.451,25.822l0.013,0.229c2.261-0.215,4.347,1.293,6.218,4.472c1.517,2.567,2.878,6.214,4.063,10.854
		c1.694,6.647,2.531,13.442,2.76,15.493c-1.711-3.105-4.877-3.164-5.498-3.141c-0.512-10.744-1.872-18.457-4.043-22.917
		c-1.695-3.467-3.309-3.658-3.491-3.667l-0.009,0.221c0.249,0.016,6.112,0.643,7.328,26.481l0.001,0.114l0.123-0.004
		c0.034-0.003,3.954-0.314,5.667,3.563l0.218-0.053c-0.015-0.082-0.813-8.224-2.832-16.15c-1.199-4.651-2.577-8.327-4.092-10.911
		C42.963,27.146,40.798,25.601,38.451,25.822"/>
	<path fill="#F48120" d="M29.537,65l0.01,1.023c-0.517,0.2-1.024,0.293-1.524,0.299c-0.815,0.006-1.467-0.223-1.96-0.707
		c-0.499-0.484-0.743-1.128-0.75-1.939c-0.007-0.822,0.225-1.482,0.694-1.992c0.468-0.51,1.087-0.769,1.866-0.774
		c0.266-0.003,0.507,0.028,0.726,0.076c0.21,0.047,0.48,0.141,0.791,0.281l0.01,1.103c-0.525-0.336-1.01-0.505-1.459-0.5
		c-0.467,0.003-0.851,0.17-1.148,0.505c-0.293,0.331-0.442,0.753-0.438,1.262c0.004,0.54,0.172,0.959,0.501,1.268
		c0.326,0.313,0.761,0.465,1.316,0.463C28.568,65.361,29.022,65.247,29.537,65"/>
	<path fill="#F48120" d="M31.792,60.993l0.01,1.187l0.051-0.093c0.494-0.806,0.983-1.222,1.479-1.225
		c0.395-0.003,0.802,0.194,1.222,0.578l-0.537,0.916c-0.361-0.335-0.691-0.502-1-0.5c-0.329,0.002-0.614,0.164-0.863,0.488
		c-0.231,0.313-0.344,0.694-0.34,1.131l0.024,2.735l-1.05,0.009l-0.045-5.218L31.792,60.993z"/>
	<path fill="#F48120" d="M38.659,66.151l-0.007-0.682c-0.217,0.247-0.467,0.438-0.757,0.569c-0.277,0.135-0.555,0.202-0.843,0.204
		c-0.33,0.003-0.632-0.071-0.911-0.232c-0.287-0.161-0.5-0.38-0.644-0.661c-0.145-0.287-0.219-0.75-0.225-1.404l-0.026-2.982
		l1.028-0.01l0.026,2.969c0.004,0.546,0.091,0.925,0.247,1.144c0.164,0.215,0.444,0.32,0.839,0.316
		c0.499-0.006,0.915-0.247,1.26-0.735l-0.033-3.714l1.031-0.009l0.047,5.219L38.659,66.151z"/>
	<polygon fill="#F48120" points="40.585,60.917 45.042,60.879 42.313,65.161 45.079,65.135 45.089,66.095 40.519,66.135 
		43.236,61.851 40.594,61.873 	"/>
	<path fill="#F48120" d="M43.728,36.769c-2.103-8.85-4.945-9.369-5.249-9.4c-0.014,0.011-0.025,0.022-0.025,0.022
		c-2.312-0.145-2.121,1.828-2.121,1.828c-2.15,0.13-1.766,1.965-1.766,1.965s-0.011,0.017-0.029,0.05h0.008
		C34.615,31.704,35.385,34.672,43.728,36.769"/>
	<path fill="#F58320" d="M64.419,69.432c-0.135,0-0.261-0.024-0.377-0.074c-0.117-0.049-0.218-0.119-0.305-0.206
		c-0.085-0.087-0.153-0.189-0.202-0.307c-0.049-0.116-0.074-0.242-0.074-0.377c0-0.134,0.025-0.26,0.074-0.377
		s0.117-0.218,0.202-0.305c0.086-0.086,0.188-0.155,0.305-0.206c0.116-0.05,0.243-0.075,0.379-0.075c0.135,0,0.26,0.025,0.376,0.075
		c0.116,0.051,0.217,0.12,0.303,0.206s0.153,0.188,0.203,0.305c0.049,0.117,0.074,0.243,0.074,0.377
		c0,0.135-0.025,0.261-0.074,0.377c-0.05,0.117-0.118,0.219-0.203,0.307c-0.086,0.087-0.187,0.157-0.305,0.206
		C64.679,69.407,64.554,69.432,64.419,69.432 M64.419,69.247c0.108,0,0.209-0.02,0.301-0.06c0.092-0.039,0.172-0.095,0.238-0.164
		c0.067-0.07,0.12-0.152,0.158-0.247c0.037-0.095,0.056-0.197,0.056-0.306c0-0.107-0.019-0.21-0.056-0.305
		c-0.038-0.095-0.091-0.178-0.158-0.247c-0.066-0.07-0.146-0.125-0.238-0.166s-0.191-0.061-0.299-0.061
		c-0.108,0-0.208,0.02-0.301,0.061c-0.092,0.041-0.172,0.096-0.239,0.166c-0.068,0.069-0.122,0.152-0.159,0.247
		c-0.038,0.095-0.057,0.197-0.057,0.305c0,0.108,0.019,0.211,0.057,0.306c0.037,0.095,0.09,0.177,0.157,0.247
		c0.067,0.069,0.146,0.125,0.238,0.164C64.21,69.228,64.311,69.247,64.419,69.247 M64.085,67.977h0.375
		c0.061,0,0.113,0.009,0.155,0.026c0.044,0.019,0.08,0.04,0.108,0.067s0.049,0.059,0.063,0.093c0.013,0.034,0.019,0.066,0.019,0.102
		c0,0.062-0.015,0.119-0.047,0.169c-0.032,0.051-0.079,0.089-0.144,0.115l0.237,0.402h-0.21l-0.218-0.378H64.27v0.378h-0.185V67.977
		z M64.452,68.427c0.057,0,0.098-0.014,0.123-0.041c0.026-0.028,0.039-0.065,0.039-0.111c0-0.047-0.014-0.084-0.041-0.107
		s-0.072-0.036-0.133-0.036H64.27v0.296H64.452L64.452,68.427z"/>
	<path fill="#F48120" d="M46.608,68.984l0.005,0.463c-0.277-0.205-0.513-0.309-0.71-0.306c-0.09,0-0.161,0.023-0.224,0.077
		c-0.059,0.047-0.084,0.104-0.084,0.178c0.001,0.037,0.017,0.088,0.057,0.139c0.036,0.045,0.149,0.142,0.355,0.267
		c0.198,0.133,0.336,0.265,0.41,0.369c0.069,0.112,0.107,0.233,0.108,0.347c0.002,0.201-0.066,0.371-0.202,0.499
		s-0.31,0.199-0.512,0.2c-0.264,0.002-0.53-0.102-0.815-0.306l0.074-0.426c0.29,0.23,0.532,0.34,0.714,0.339
		c0.09,0,0.161-0.02,0.218-0.067c0.056-0.049,0.085-0.112,0.084-0.189c0-0.054-0.022-0.114-0.057-0.17
		c-0.046-0.061-0.166-0.154-0.365-0.291c-0.198-0.131-0.333-0.249-0.396-0.358c-0.064-0.106-0.101-0.217-0.104-0.329
		c-0.001-0.199,0.067-0.359,0.195-0.479c0.134-0.13,0.31-0.188,0.533-0.19C46.128,68.746,46.362,68.822,46.608,68.984"/>
	<path fill="#F48120" d="M47.842,68.212l-0.083,0.596c0.122-0.055,0.254-0.078,0.398-0.079c0.271-0.002,0.5,0.097,0.69,0.304
		c0.182,0.198,0.28,0.455,0.282,0.769c0.003,0.368-0.12,0.693-0.365,0.971c-0.253,0.281-0.595,0.424-1.026,0.427l-0.289,0.003
		L47.3,72.329l-0.44,0.004l0.389-2.952c-0.093,0.075-0.18,0.159-0.256,0.264c-0.068,0.113-0.112,0.164-0.125,0.165
		c-0.017-0.001-0.021-0.006-0.021-0.032c-0.001-0.081,0.043-0.189,0.13-0.334c0.085-0.146,0.191-0.274,0.316-0.375l0.107-0.853
		L47.842,68.212z M47.72,69.132l-0.225,1.693l0.209-0.002c0.303-0.003,0.54-0.104,0.715-0.311c0.178-0.199,0.264-0.438,0.261-0.707
		c-0.002-0.232-0.071-0.421-0.188-0.553c-0.134-0.126-0.288-0.195-0.487-0.194C47.905,69.061,47.809,69.087,47.72,69.132"/>
	<path fill="#F48120" d="M51.328,70.489l-0.058,0.42c-0.238,0.171-0.494,0.264-0.77,0.266c-0.296,0.002-0.536-0.098-0.712-0.306
		c-0.184-0.192-0.273-0.469-0.275-0.813c-0.005-0.379,0.101-0.695,0.313-0.957c0.208-0.261,0.466-0.39,0.78-0.392
		c0.237-0.002,0.434,0.083,0.59,0.267c0.165,0.175,0.241,0.408,0.244,0.686c0,0.078-0.001,0.146-0.017,0.218l-1.45,0.013
		c-0.01,0.075-0.019,0.153-0.019,0.222c0.003,0.216,0.062,0.389,0.181,0.513c0.122,0.119,0.262,0.186,0.441,0.184
		C50.793,70.808,51.047,70.702,51.328,70.489 M50.039,69.588l0.974-0.01c-0.002-0.161-0.038-0.289-0.11-0.378
		c-0.076-0.094-0.176-0.14-0.314-0.138C50.337,69.064,50.153,69.233,50.039,69.588"/>
	<path fill="#F48120" d="M44.542,70.439l-0.057,0.421c-0.238,0.17-0.494,0.263-0.77,0.266c-0.297,0.002-0.537-0.099-0.712-0.307
		c-0.183-0.192-0.273-0.469-0.276-0.813c-0.004-0.38,0.101-0.695,0.314-0.956c0.208-0.262,0.466-0.392,0.78-0.394
		c0.237-0.002,0.434,0.085,0.59,0.267c0.165,0.175,0.241,0.409,0.244,0.688c0,0.078-0.001,0.146-0.017,0.217l-1.451,0.012
		c-0.01,0.077-0.019,0.155-0.019,0.224c0.003,0.215,0.062,0.388,0.182,0.511c0.121,0.12,0.262,0.187,0.44,0.185
		C44.007,70.758,44.261,70.651,44.542,70.439 M43.252,69.537l0.975-0.01c-0.001-0.161-0.038-0.289-0.11-0.378
		c-0.076-0.095-0.176-0.14-0.314-0.138C43.551,69.014,43.368,69.184,43.252,69.537"/>
	<path fill="#F48120" d="M52.53,68.753l-0.062,0.446l0.006,0.01c0.143-0.197,0.25-0.332,0.334-0.397
		c0.08-0.066,0.171-0.096,0.293-0.098c0.061-0.002,0.127,0.012,0.187,0.032l0.004,0.5c-0.094-0.053-0.186-0.072-0.271-0.072
		c-0.088,0.001-0.162,0.021-0.233,0.064c-0.068,0.044-0.146,0.141-0.243,0.274c-0.098,0.146-0.147,0.233-0.146,0.266l-0.17,1.311
		l-0.445,0.003l0.312-2.337L52.53,68.753z"/>
	<path fill="#F48120" d="M55.521,68.739l-0.309,2.323l-0.442,0.006l0.036-0.261l-0.011-0.012c-0.201,0.206-0.403,0.316-0.62,0.319
		c-0.216,0.002-0.392-0.085-0.547-0.268c-0.147-0.175-0.228-0.391-0.229-0.647c-0.004-0.439,0.138-0.799,0.406-1.094
		c0.278-0.283,0.664-0.433,1.168-0.438C55.172,68.667,55.357,68.687,55.521,68.739 M54.858,70.4l0.177-1.347
		c-0.046-0.006-0.09-0.003-0.136-0.002c-0.344,0.002-0.607,0.114-0.781,0.331c-0.178,0.224-0.268,0.474-0.266,0.74
		c0.001,0.192,0.04,0.343,0.138,0.461c0.087,0.118,0.202,0.181,0.328,0.18c0.106,0,0.222-0.056,0.353-0.163
		C54.794,70.49,54.859,70.425,54.858,70.4"/>
	<path fill="#F48120" d="M56.562,68.718l-0.057,0.403l0.012,0.01c0.24-0.302,0.498-0.451,0.765-0.454
		c0.175-0.001,0.314,0.062,0.413,0.193c0.104,0.132,0.151,0.307,0.153,0.515c0.001,0.061,0.001,0.123-0.013,0.186l-0.194,1.472
		l-0.442,0.005L57.4,69.55c0.007-0.053,0.007-0.101,0.007-0.146c-0.001-0.119-0.026-0.215-0.074-0.278
		c-0.053-0.063-0.116-0.097-0.192-0.096c-0.048,0-0.091,0.014-0.151,0.036c-0.055,0.019-0.11,0.057-0.175,0.103
		c-0.058,0.048-0.14,0.113-0.227,0.21c-0.089,0.093-0.14,0.152-0.144,0.177l-0.201,1.499l-0.438,0.005l0.309-2.336L56.562,68.718z"
		/>
	<polygon fill="#F48120" points="60.384,68.685 58.85,70.646 60.219,70.634 60.131,71.019 58.016,71.039 59.533,69.078 
		58.347,69.088 58.394,68.702 	"/>
	<path fill="#F48120" d="M62.767,68.676l-0.313,2.326l-0.443,0.002l0.041-0.261l-0.005-0.011c-0.204,0.206-0.418,0.317-0.626,0.319
		c-0.212,0.002-0.392-0.084-0.541-0.267c-0.152-0.175-0.229-0.391-0.232-0.648c-0.002-0.44,0.129-0.8,0.407-1.093
		c0.274-0.284,0.659-0.434,1.158-0.438C62.42,68.604,62.603,68.625,62.767,68.676 M62.104,70.336l0.181-1.346
		c-0.051-0.004-0.092-0.003-0.141-0.004c-0.347,0.003-0.609,0.116-0.777,0.334c-0.187,0.224-0.274,0.472-0.27,0.741
		c0.001,0.19,0.045,0.342,0.136,0.457c0.09,0.12,0.199,0.181,0.333,0.181c0.104-0.001,0.216-0.057,0.345-0.163
		C62.034,70.427,62.096,70.361,62.104,70.336"/>
	<path fill="#F48120" d="M28.364,68.743l-0.31,2.338l-0.432,0.005l0.299-2.338L28.364,68.743z M27.962,68.024
		c-0.001-0.075,0.028-0.134,0.075-0.187c0.046-0.047,0.106-0.074,0.18-0.074c0.065-0.003,0.123,0.024,0.178,0.071
		c0.048,0.051,0.069,0.109,0.07,0.186c0.001,0.066-0.019,0.125-0.067,0.179c-0.054,0.048-0.111,0.076-0.176,0.076
		c-0.074,0.001-0.134-0.026-0.182-0.072C27.992,68.148,27.963,68.092,27.962,68.024"/>
	<path fill="#F48120" d="M30.925,67.514l-0.462,3.54c-0.174,0.05-0.374,0.08-0.597,0.082c-0.398,0.003-0.698-0.086-0.917-0.272
		c-0.215-0.188-0.32-0.455-0.321-0.799c-0.004-0.339,0.127-0.654,0.407-0.949c0.269-0.301,0.641-0.455,1.114-0.459l0.186-0.002
		l0.153-1.137L30.925,67.514z M30.061,70.757l0.227-1.735h-0.117c-0.332,0.003-0.594,0.115-0.793,0.312
		c-0.207,0.199-0.303,0.444-0.301,0.722c0.002,0.226,0.068,0.404,0.203,0.532c0.13,0.119,0.33,0.188,0.583,0.184
		C29.948,70.77,30.016,70.762,30.061,70.757"/>
	<path fill="#F48120" d="M35.593,73.15c0.015-0.116,0.03-0.232,0.045-0.349l-0.042,0.32"/>
	<path fill="#F48120" d="M33.206,68.714l-0.313,2.325l-0.433,0.004l0.036-0.261l-0.016-0.013c-0.197,0.208-0.407,0.319-0.622,0.321
		c-0.207,0.002-0.385-0.085-0.539-0.268c-0.15-0.176-0.229-0.391-0.23-0.648c-0.005-0.439,0.133-0.8,0.407-1.093
		c0.274-0.284,0.666-0.434,1.159-0.438C32.856,68.644,33.044,68.662,33.206,68.714 M32.545,70.374l0.183-1.346
		c-0.05-0.006-0.097-0.003-0.142-0.004c-0.347,0.003-0.608,0.115-0.787,0.332c-0.176,0.225-0.265,0.474-0.263,0.743
		c0.002,0.189,0.047,0.341,0.139,0.458c0.093,0.119,0.199,0.181,0.333,0.18c0.102,0,0.218-0.056,0.343-0.162
		C32.476,70.464,32.541,70.399,32.545,70.374"/>
	<path fill="#F48120" d="M39.923,68.738l-0.057,0.402l0.012,0.01c0.241-0.302,0.498-0.45,0.765-0.453
		c0.174-0.002,0.315,0.061,0.414,0.192c0.104,0.132,0.15,0.307,0.153,0.515c0.001,0.061,0.001,0.123-0.012,0.187l-0.195,1.472
		l-0.441,0.005l0.202-1.498c0.008-0.053,0.008-0.1,0.006-0.146c-0.001-0.118-0.025-0.215-0.074-0.277
		c-0.053-0.063-0.116-0.097-0.192-0.096c-0.048,0-0.091,0.013-0.151,0.035c-0.056,0.019-0.111,0.057-0.175,0.103
		c-0.057,0.048-0.139,0.113-0.226,0.211c-0.09,0.093-0.141,0.151-0.144,0.176l-0.202,1.5l-0.438,0.004l0.31-2.336L39.923,68.738z"/>
	<path fill="#F48120" d="M36.302,68.647c-0.473,0.005-0.845,0.154-1.115,0.444c-0.279,0.287-0.41,0.593-0.407,0.921
		c0.001,0.333,0.105,0.593,0.321,0.773c0.218,0.181,0.52,0.268,0.917,0.265c0.224-0.001,0.331-0.079,0.331-0.079l0.046-0.351
		c-0.045,0.004-0.294,0.075-0.379,0.076c-0.253,0.003-0.453-0.063-0.583-0.179c-0.134-0.124-0.2-0.298-0.202-0.516
		c-0.002-0.269,0.094-0.507,0.3-0.7c0.2-0.19,0.462-0.299,0.793-0.302h0.287l0.059-0.345C36.458,68.653,36.513,68.649,36.302,68.647
		"/>
	<path fill="#F48120" d="M37.957,68.647c0.446-0.008,0.905,0.281,1.03,0.805c0.126,0.523-0.14,1.045-0.471,1.318
		c-0.47,0.389-1.202,0.389-1.559-0.102c-0.263-0.362-0.251-0.894-0.053-1.301C37.113,68.938,37.525,68.654,37.957,68.647
		 M37.382,70.535c0.202,0.187,0.535,0.216,0.782,0.077c0.468-0.262,0.6-1.104,0.222-1.419c-0.223-0.187-0.597-0.166-0.853,0.018
		C37.117,69.511,37.04,70.221,37.382,70.535"/>
	<polygon fill="#F48120" points="27.661,67.522 26.248,71.044 25.975,71.044 25.328,67.548 25.841,67.542 26.238,70.071 
		27.112,67.528 	"/>
</g>
</svg>
