<?xml version="1.0" encoding="utf-8"?>
<!-- Generator: Adobe Illustrator 16.0.0, SVG Export Plug-In . SVG Version: 6.00 Build 0)  -->
<!DOCTYPE svg PUBLIC "-//W3C//DTD SVG 1.1//EN" "http://www.w3.org/Graphics/SVG/1.1/DTD/svg11.dtd">
<svg version="1.1" id="Layer_1" xmlns="http://www.w3.org/2000/svg" xmlns:xlink="http://www.w3.org/1999/xlink" x="0px" y="0px"
	 width="130px" height="130px" viewBox="0 0 130 130" enable-background="new 0 0 130 130" xml:space="preserve">
<g>
	<path fill="#EF7622" d="M102.506,44.526c-0.836-2.148-10.686-25.779-37.356-14.207l-2.781-2.774c0,0,18.724-10.655,36.699,2.706
		c-1.25-2.69-2.808-5.215-4.628-7.52c-1.839-1.188-23.775-14.652-38.594,10.453l-3.879-0.617c0,0,8.889-19.625,31.293-19.374
		c-2.545-1.428-5.271-2.563-8.134-3.367c-1.854,0.09-27.901,1.908-25.113,31.142l-3.501,1.783c0,0-4.351-21.102,13.921-34.069
		c-2.946,0.347-5.798,1.027-8.505,2.019c-1.021,0.814-21.727,17.73-2.061,39.994l-1.785,3.499c0,0-15.926-14.512-8.761-35.756
		c-2.151,1.99-4.07,4.229-5.709,6.673c-0.443,1.622-6.923,27.136,21.854,33.543l0.605,3.873c0,0-21.428-2.377-28.107-23.799
		c-0.464,2.372-0.716,4.819-0.716,7.328c0,0.489,0.016,0.982,0.036,1.469c0.659,1.727,10.441,25.955,37.385,14.271l2.772,2.78
		c0,0-18.741,10.663-36.721-2.73c1.245,2.695,2.806,5.216,4.626,7.521c1.66,1.085,23.732,14.783,38.617-10.441l3.879,0.621
		c0,0-8.893,19.642-31.309,19.376c2.543,1.426,5.276,2.563,8.137,3.369c1.797-0.086,27.927-1.879,25.131-31.146l3.496-1.777
		c0,0,4.352,21.095-13.918,34.065c2.965-0.35,5.823-1.043,8.538-2.043c1.348-1.081,21.518-17.904,2.027-39.971l1.782-3.498
		c0,0,15.916,14.503,8.768,35.724c2.159-1.999,4.074-4.24,5.716-6.691c0.536-1.991,6.669-27.138-21.862-33.485l-0.614-3.885
		c0,0,21.407,2.386,28.098,23.752c0.461-2.358,0.706-4.786,0.706-7.28C102.539,45.543,102.522,45.037,102.506,44.526"/>
	<rect x="13.439" y="100.524" fill="#AC162C" width="102.813" height="10.555"/>
	<rect x="15.048" y="90.651" fill="#AC162C" width="1.5" height="6.827"/>
	<polygon fill="#AC162C" points="18.059,90.651 19.554,90.651 22.407,95.238 22.424,95.238 22.424,90.651 23.832,90.651 
		23.832,97.479 22.326,97.479 19.488,92.911 19.468,92.911 19.468,97.479 18.059,97.479 	"/>
	<path fill="#AC162C" d="M26.365,95.213c0,0.909,0.709,1.264,1.512,1.264c0.527,0,1.333-0.154,1.333-0.847
		c0-0.741-1.032-0.868-2.033-1.133c-1.014-0.268-2.038-0.659-2.038-1.94c0-1.399,1.323-2.071,2.556-2.071
		c1.429,0,2.737,0.625,2.737,2.201h-1.454c-0.048-0.819-0.63-1.035-1.351-1.035c-0.476,0-1.031,0.206-1.031,0.776
		c0,0.528,0.321,0.595,2.041,1.034c0.493,0.129,2.028,0.439,2.028,1.993c0,1.249-0.988,2.188-2.848,2.188
		c-1.513,0-2.92-0.745-2.906-2.431H26.365z"/>
	<polygon fill="#AC162C" points="33.257,91.911 31.206,91.911 31.206,90.651 36.801,90.651 36.801,91.911 34.756,91.911 
		34.756,97.478 33.257,97.478 	"/>
	<rect x="37.782" y="90.651" fill="#AC162C" width="1.503" height="6.827"/>
	<polygon fill="#AC162C" points="42.307,91.911 40.258,91.911 40.258,90.651 45.855,90.651 45.855,91.911 43.807,91.911 
		43.807,97.478 42.307,97.478 	"/>
	<path fill="#AC162C" d="M52.631,94.897c0,1.853-1.092,2.747-2.92,2.747c-1.835,0-2.908-0.889-2.908-2.747v-4.246h1.504v4.246
		c0,0.75,0.191,1.487,1.404,1.487c1.074,0,1.418-0.468,1.418-1.487v-4.246h1.502V94.897z"/>
	<path fill="#AC162C" d="M58.67,92.95c-0.096-0.685-0.746-1.199-1.492-1.199c-1.353,0-1.86,1.148-1.86,2.347
		c0,1.141,0.508,2.287,1.86,2.287c0.921,0,1.434-0.636,1.547-1.534h1.461c-0.153,1.705-1.336,2.794-3.008,2.794
		c-2.115,0-3.36-1.577-3.36-3.547c0-2.028,1.245-3.61,3.36-3.61c1.5,0,2.766,0.879,2.945,2.463H58.67z"/>
	<rect x="61.398" y="90.651" fill="#AC162C" width="1.5" height="6.827"/>
	<path fill="#AC162C" d="M67.477,90.487c2.112,0,3.354,1.582,3.354,3.611c0,1.969-1.242,3.546-3.354,3.546
		c-2.121,0-3.364-1.577-3.364-3.546C64.112,92.069,65.355,90.487,67.477,90.487 M67.477,96.384c1.347,0,1.852-1.146,1.852-2.286
		c0-1.199-0.505-2.348-1.852-2.348c-1.354,0-1.86,1.148-1.86,2.348C65.616,95.238,66.122,96.384,67.477,96.384"/>
	<polygon fill="#AC162C" points="72.047,90.651 73.536,90.651 76.394,95.238 76.413,95.238 76.413,90.651 77.816,90.651 
		77.816,97.479 76.311,97.479 73.474,92.911 73.454,92.911 73.454,97.479 72.047,97.479 	"/>
	<path fill="#AC162C" d="M81.191,90.651h1.538l2.559,6.828h-1.559l-0.517-1.52h-2.556l-0.535,1.52h-1.524L81.191,90.651z
		 M81.053,94.84h1.765l-0.859-2.504h-0.021L81.053,94.84z"/>
	<polygon fill="#AC162C" points="86.069,90.651 87.575,90.651 87.575,96.22 90.903,96.22 90.903,97.479 86.069,97.479 	"/>
	<rect x="91.938" y="90.651" fill="#AC162C" width="1.5" height="6.827"/>
	<path fill="#AC162C" d="M94.95,90.651h2.949c1.767,0,3.101,1.11,3.101,3.379c0,1.977-1.013,3.449-3.101,3.449H94.95V90.651
		 M96.453,96.22h1.343c0.866,0,1.702-0.537,1.702-2.051c0-1.374-0.477-2.26-1.97-2.26h-1.075V96.22z"/>
	<path fill="#AC162C" d="M104.102,90.651h1.537l2.555,6.828h-1.556l-0.521-1.52h-2.555l-0.532,1.52h-1.526L104.102,90.651z
		 M103.956,94.84h1.771l-0.86-2.504h-0.02L103.956,94.84z"/>
	<path fill="#AC162C" d="M108.979,90.651h2.948c1.768,0,3.102,1.11,3.102,3.379c0,1.977-1.017,3.449-3.102,3.449h-2.948V90.651
		 M110.484,96.22h1.336c0.87,0,1.701-0.537,1.701-2.051c0-1.374-0.477-2.26-1.969-2.26h-1.068V96.22z"/>
	<polygon fill="#FFFFFF" points="18.706,106.353 16.188,102.181 17.886,102.181 19.48,104.878 21.071,102.181 22.746,102.181 
		20.207,106.392 20.207,109.012 18.706,109.012 	"/>
	<polygon fill="#FFFFFF" points="28.449,103.443 26.398,103.443 26.398,102.181 31.998,102.181 31.998,103.443 29.951,103.443 
		29.951,109.012 28.449,109.012 	"/>
	<path fill="#FFFFFF" d="M33.262,102.181h3.681c1.226,0,2.001,0.852,2.001,1.886c0,0.8-0.328,1.4-1.083,1.713v0.015
		c0.74,0.195,0.946,0.909,0.996,1.601c0.032,0.432,0.017,1.236,0.29,1.617h-1.506c-0.18-0.434-0.163-1.093-0.237-1.639
		c-0.106-0.715-0.384-1.032-1.142-1.032h-1.5v2.671h-1.5V102.181 M34.762,105.266h1.648c0.669,0,1.029-0.283,1.029-0.973
		c0-0.659-0.36-0.948-1.029-0.948h-1.648V105.266z"/>
	<path fill="#FFFFFF" d="M42.516,102.181h1.537l2.554,6.831h-1.561l-0.512-1.521h-2.556l-0.537,1.521h-1.52L42.516,102.181z
		 M42.369,106.375h1.772l-0.859-2.507h-0.021L42.369,106.375z"/>
	<polygon fill="#FFFFFF" points="47.678,102.181 49.171,102.181 52.024,106.762 52.041,106.762 52.041,102.181 53.45,102.181 
		53.45,109.012 51.947,109.012 49.107,104.439 49.085,104.439 49.085,109.012 47.678,109.012 	"/>
	<path fill="#FFFFFF" d="M56.271,106.746c0,0.907,0.706,1.267,1.513,1.267c0.524,0,1.333-0.163,1.333-0.854
		c0-0.74-1.026-0.858-2.03-1.131c-1.014-0.269-2.039-0.662-2.039-1.942c0-1.396,1.323-2.068,2.549-2.068
		c1.431,0,2.741,0.623,2.741,2.2h-1.454c-0.046-0.821-0.627-1.032-1.348-1.032c-0.478,0-1.036,0.203-1.036,0.776
		c0,0.525,0.329,0.594,2.036,1.033c0.502,0.122,2.028,0.438,2.028,1.983c0,1.258-0.98,2.198-2.834,2.198
		c-1.519,0-2.936-0.75-2.911-2.43H56.271z"/>
	<path fill="#FFFFFF" d="M61.936,102.181h3.084c1.702,0,2.363,1.08,2.363,2.189c0,1.108-0.661,2.191-2.363,2.191h-1.584v2.45h-1.5
		V102.181 M63.436,105.392h1.174c0.693,0,1.319-0.153,1.319-1.021c0-0.87-0.626-1.025-1.319-1.025h-1.174V105.392z"/>
	<path fill="#FFFFFF" d="M69.956,102.181h1.539l2.557,6.831h-1.56l-0.521-1.521H69.42l-0.535,1.521h-1.521L69.956,102.181z
		 M69.807,106.375h1.775l-0.861-2.507H70.7L69.807,106.375z"/>
	<path fill="#FFFFFF" d="M75.121,102.181h3.687c1.226,0,1.999,0.852,1.999,1.886c0,0.8-0.328,1.4-1.079,1.713v0.015
		c0.735,0.195,0.94,0.909,0.99,1.601c0.027,0.432,0.021,1.236,0.286,1.617h-1.503c-0.178-0.434-0.164-1.093-0.236-1.639
		c-0.105-0.715-0.379-1.032-1.14-1.032h-1.5v2.671h-1.504V102.181 M76.625,105.266h1.644c0.669,0,1.035-0.283,1.035-0.973
		c0-0.659-0.366-0.948-1.035-0.948h-1.644V105.266z"/>
	<polygon fill="#FFFFFF" points="82.512,102.181 87.616,102.181 87.616,103.443 84.012,103.443 84.012,104.905 87.32,104.905 
		87.32,106.073 84.012,106.073 84.012,107.748 87.698,107.748 87.698,109.012 82.512,109.012 	"/>
	<polygon fill="#FFFFFF" points="89.189,102.181 90.678,102.181 93.531,106.762 93.548,106.762 93.548,102.181 94.959,102.181 
		94.959,109.012 93.456,109.012 90.615,104.439 90.59,104.439 90.59,109.012 89.189,109.012 	"/>
	<path fill="#FFFFFF" d="M101.311,104.473c-0.097-0.68-0.748-1.194-1.494-1.194c-1.346,0-1.856,1.15-1.856,2.348
		c0,1.136,0.511,2.284,1.856,2.284c0.918,0,1.433-0.63,1.55-1.531h1.461c-0.152,1.702-1.329,2.796-3.011,2.796
		c-2.114,0-3.362-1.575-3.362-3.549c0-2.032,1.248-3.609,3.362-3.609c1.505,0,2.771,0.885,2.949,2.456H101.311z"/>
	<rect x="104.319" y="102.181" fill="#FFFFFF" width="1.505" height="6.831"/>
	<path fill="#FFFFFF" d="M109.492,102.181h1.54l2.551,6.831h-1.556l-0.516-1.521h-2.559l-0.536,1.521h-1.521L109.492,102.181z
		 M109.347,106.375h1.776l-0.864-2.507h-0.021L109.347,106.375z"/>
	<path fill="#1D1D1B" d="M90.336,120.895c-0.631,0.284-1.384,0.424-2.259,0.424c-1.065,0-1.899-0.297-2.496-0.898
		c-0.594-0.597-0.893-1.432-0.893-2.505c0-1.09,0.303-1.93,0.903-2.521c0.597-0.585,1.451-0.882,2.563-0.882
		c0.708,0,1.413,0.089,2.117,0.262v1.061c-0.796-0.281-1.462-0.425-1.999-0.425c-0.688,0-1.215,0.214-1.587,0.651
		c-0.373,0.433-0.561,1.047-0.561,1.842c0,0.784,0.201,1.394,0.601,1.829c0.403,0.438,0.96,0.656,1.672,0.656
		c0.64,0,1.288-0.162,1.938-0.488V120.895z"/>
	<path fill="#1D1D1B" d="M95.444,121.009c-0.616,0.185-1.203,0.278-1.754,0.278c-0.807,0-1.438-0.23-1.905-0.69
		c-0.467-0.457-0.699-1.083-0.699-1.877c0-0.749,0.215-1.35,0.64-1.807c0.425-0.456,0.987-0.688,1.688-0.688
		c0.702,0,1.221,0.226,1.54,0.672c0.328,0.446,0.49,1.154,0.49,2.12h-2.986c0.086,0.926,0.591,1.389,1.511,1.389
		c0.44,0,0.928-0.105,1.476-0.311V121.009z M92.44,118.281h1.731c0-0.824-0.265-1.236-0.798-1.236
		C92.84,117.044,92.527,117.457,92.44,118.281"/>
	<path fill="#1D1D1B" d="M96.822,121.173v-4.833h1.256v0.909c0.379-0.682,0.92-1.023,1.626-1.023c0.365,0,0.66,0.09,0.896,0.271
		c0.235,0.178,0.38,0.429,0.429,0.753c0.454-0.682,0.996-1.023,1.636-1.023c0.879,0,1.32,0.487,1.32,1.465v3.482h-1.257v-3.058
		c0-0.575-0.189-0.858-0.568-0.858c-0.385,0-0.762,0.28-1.131,0.846v3.07h-1.255v-3.054c0-0.576-0.191-0.862-0.572-0.862
		c-0.38,0-0.757,0.28-1.123,0.847v3.069H96.822z"/>
	<path fill="#1D1D1B" d="M109.484,121.009c-0.619,0.185-1.202,0.278-1.758,0.278c-0.801,0-1.438-0.23-1.902-0.69
		c-0.465-0.457-0.697-1.083-0.697-1.877c0-0.749,0.214-1.35,0.638-1.807c0.425-0.456,0.991-0.688,1.686-0.688
		c0.707,0,1.22,0.226,1.548,0.672c0.323,0.446,0.486,1.154,0.486,2.12h-2.986c0.087,0.926,0.588,1.389,1.511,1.389
		c0.437,0,0.927-0.105,1.476-0.311V121.009z M106.48,118.281h1.731c0-0.824-0.268-1.236-0.795-1.236
		C106.878,117.044,106.568,117.457,106.48,118.281"/>
	<rect x="114.611" y="116.34" fill="#1D1D1B" width="1.307" height="4.833"/>
	<path fill="#1D1D1B" d="M112.773,114.106c-1.189,0-1.782,0.629-1.782,1.889v0.345h-0.669v0.818h0.669v4.015h1.304v-4.015h1.225
		v-0.818h-1.225v-0.396c0-0.683,0.227-1.023,0.674-1.023c0.287,0,0.608,0.076,0.965,0.222c-0.228-0.268-0.381-0.6-0.414-0.968
		C113.266,114.128,113.019,114.106,112.773,114.106"/>
	<path fill="#EF7622" d="M116.561,114.011c0,0.722-0.584,1.305-1.303,1.305s-1.304-0.583-1.304-1.305
		c0-0.719,0.585-1.303,1.304-1.303S116.561,113.292,116.561,114.011"/>
</g>
</svg>
