<?xml version="1.0" encoding="utf-8"?>
<!-- Generator: Adobe Illustrator 16.0.0, SVG Export Plug-In . SVG Version: 6.00 Build 0)  -->
<!DOCTYPE svg PUBLIC "-//W3C//DTD SVG 1.1//EN" "http://www.w3.org/Graphics/SVG/1.1/DTD/svg11.dtd">
<svg version="1.1" id="Layer_1" xmlns="http://www.w3.org/2000/svg" xmlns:xlink="http://www.w3.org/1999/xlink" x="0px" y="0px"
	 width="112.639px" height="112.639px" viewBox="0 0 112.639 112.639" enable-background="new 0 0 112.639 112.639"
	 xml:space="preserve">
<g>
	<path fill="#FFFFFF" d="M112.637,55.832c-0.272-31.104-25.708-56.103-56.81-55.829C24.722,0.275-0.271,25.708,0.002,56.814
		c0.269,31.101,25.7,56.096,56.808,55.822C87.912,112.366,112.908,86.931,112.637,55.832"/>
	<path fill="#E9C7CD" d="M66.734,34.206c-0.003-0.353-0.187-21.233-0.187-21.233l-0.172,0.003l-21.04,0.183
		c0,0,0.082,9.073,0.136,15.358c0.054,0.004,0.099-0.001,0.155,0.002c0,0,0.017-0.017,0.039-0.035
		c0.481,0.052,4.967,0.869,8.286,14.841c-13.171-3.31-14.385-7.995-14.493-8.736h-0.015c0.03-0.053,0.047-0.08,0.047-0.08
		s-0.003-0.028-0.009-0.064c-6.279,0.056-15.198,0.132-15.198,0.132l0.187,21.212c0,0,20.885-0.183,21.236-0.187
		c0.004,0.347,0.187,21.24,0.187,21.24l21.212-0.186c0,0-0.184-20.891-0.186-21.238c0.354-0.003,21.233-0.188,21.233-0.188
		l-0.183-21.21C87.97,34.018,67.087,34.201,66.734,34.206"/>
	<path fill="#E98596" d="M59.176,81.358l0.019,1.874l0.092-0.146c0.77-1.276,1.548-1.93,2.335-1.936
		c0.605-0.006,1.254,0.308,1.927,0.914l-0.844,1.443c-0.574-0.527-1.092-0.791-1.586-0.787c-0.511,0.005-0.966,0.259-1.339,0.771
		c-0.388,0.494-0.574,1.097-0.568,1.784l0.039,4.319l-1.643,0.013l-0.072-8.235L59.176,81.358z"/>
	<path fill="#E98596" d="M68.613,81.248c1.245-0.013,2.29,0.391,3.11,1.188c0.841,0.802,1.264,1.819,1.273,3.034
		c0.011,1.187-0.405,2.178-1.23,2.976c-0.836,0.79-1.879,1.182-3.159,1.192c-1.229,0.009-2.255-0.37-3.091-1.161
		c-0.834-0.791-1.264-1.781-1.272-2.98c-0.012-1.206,0.401-2.202,1.23-3.016C66.304,81.679,67.35,81.257,68.613,81.248
		 M68.53,82.721c-0.778,0.006-1.404,0.271-1.9,0.782c-0.501,0.523-0.736,1.184-0.729,1.979c0.005,0.779,0.262,1.42,0.782,1.919
		c0.519,0.495,1.173,0.735,1.97,0.727c0.796-0.007,1.448-0.258,1.94-0.771c0.519-0.506,0.766-1.156,0.76-1.947
		c-0.008-0.78-0.275-1.426-0.814-1.939C70.004,82.966,69.344,82.713,68.53,82.721"/>
	<path fill="#E98596" d="M74.459,88.868l-0.015-1.763c0.469,0.311,0.934,0.583,1.416,0.774c0.479,0.187,0.882,0.295,1.209,0.292
		c0.338-0.003,0.626-0.097,0.871-0.253c0.24-0.179,0.357-0.386,0.355-0.611c-0.003-0.24-0.086-0.439-0.235-0.599
		c-0.154-0.154-0.507-0.376-1.025-0.678c-1.056-0.573-1.753-1.073-2.073-1.487c-0.341-0.41-0.498-0.86-0.503-1.353
		c-0.004-0.626,0.234-1.144,0.724-1.554c0.498-0.401,1.124-0.614,1.9-0.623c0.807-0.006,1.629,0.224,2.479,0.673l0.014,1.605
		c-0.966-0.567-1.762-0.852-2.379-0.848c-0.315,0.003-0.564,0.071-0.761,0.206c-0.188,0.143-0.28,0.313-0.278,0.529
		c0.001,0.197,0.082,0.365,0.258,0.554c0.169,0.162,0.483,0.373,0.932,0.612l0.579,0.317c1.388,0.774,2.082,1.618,2.09,2.566
		c0.005,0.671-0.254,1.237-0.766,1.667c-0.539,0.441-1.212,0.658-2.031,0.662c-0.497,0.006-0.928-0.04-1.318-0.142
		C75.526,89.322,75.04,89.138,74.459,88.868"/>
	<path fill="#E98596" d="M87.046,84.394l0.031,3.506c0.003,0.285,0.098,0.422,0.293,0.417c0.195,0,0.511-0.142,0.934-0.428
		l0.009,0.981c-0.369,0.235-0.665,0.394-0.892,0.485c-0.226,0.083-0.456,0.122-0.7,0.123c-0.699,0.004-1.108-0.249-1.245-0.786
		c-0.683,0.545-1.426,0.811-2.204,0.816c-0.578,0.003-1.055-0.176-1.439-0.555c-0.39-0.376-0.583-0.848-0.589-1.434
		c-0.004-0.511,0.179-0.983,0.545-1.398c0.369-0.414,0.899-0.735,1.575-0.985l2.075-0.744l-0.003-0.436
		c-0.009-0.993-0.503-1.496-1.491-1.487c-0.89,0.01-1.741,0.481-2.578,1.404L81.351,82.1c0.631-0.747,1.531-1.136,2.709-1.145
		c0.887-0.009,1.61,0.222,2.148,0.685c0.185,0.143,0.345,0.342,0.495,0.59c0.131,0.252,0.229,0.501,0.277,0.751
		C87.017,83.227,87.042,83.692,87.046,84.394 M85.469,87.752l-0.021-2.493l-1.081,0.444c-0.551,0.226-0.938,0.452-1.163,0.685
		c-0.227,0.229-0.34,0.51-0.337,0.849c0.003,0.352,0.112,0.63,0.325,0.84c0.23,0.218,0.505,0.318,0.85,0.313
		C84.565,88.386,85.039,88.179,85.469,87.752"/>
	<path fill="#E98596" d="M66.378,34.563c0,0-0.183-20.896-0.188-21.239c-0.345,0.003-20.148,0.175-20.494,0.178
		c0.002,0.2,0.061,6.886,0.112,12.704c15.79-1.1,20.713,49.813,20.713,49.813c-2.786-6.319-9.137-5.737-9.137-5.737
		C55.587,31.809,47.238,28.6,45.828,28.335c0,0.06,0,0.116,0.002,0.177c0.948,0.205,5.039,1.832,8.122,14.812
		C41.685,40.24,39.791,35.967,39.5,34.794c-0.063,0.002-0.127,0.002-0.193,0.003c0.277,1.164,2.125,5.576,14.687,8.71
		c0.386,1.616,0.746,3.409,1.087,5.384c-9.859-3.117-18.025-7.659-17.73-14.076c-5.821,0.05-12.506,0.11-12.703,0.111
		c0.002,0.341,0.174,20.155,0.177,20.495c0.353-0.005,21.24-0.187,21.24-0.187s0.183,20.896,0.185,21.245
		c0.344-0.003,20.148-0.177,20.495-0.179c-0.003-0.349-0.186-21.246-0.186-21.246s14.854-0.13,19.719-0.172
		c-3.915-0.399-13.968-1.582-23.96-3.996c-0.029-0.123-0.063-0.243-0.09-0.379c-0.523-2.004-1.06-3.883-1.602-5.65
		c5.082,0.827,11.371,1.459,19.159,1.764c0,0,2.406,4.721,7.921,8.25h0.094c-0.004-0.339-0.176-20.152-0.179-20.496
		C87.272,34.378,66.378,34.563,66.378,34.563"/>
	<path fill="#F5CED4" d="M44.875,44.454c-4.854-2.756-7.33-5.87-7.357-9.235c-0.005-0.189,0.01-0.387,0.019-0.58l-0.349-0.011
		c-0.268,3.732,2.258,7.148,7.517,10.145c2.776,1.575,6.319,3.035,10.569,4.368l-0.021-0.375C51.076,47.45,47.599,46,44.875,44.454"
		/>
	<path fill="#F5CED4" d="M39.458,34.587l-0.353,0.06c0.107,0.733,0.885,3.355,6.239,6.025c2.415,1.206,5.384,2.231,8.91,3.098
		l-0.075-0.394C40.795,40.072,39.568,35.329,39.458,34.587"/>
	<path fill="#F5CED4" d="M87.968,55.226l0.105-0.324c-5.606-3.486-8.102-8.322-8.126-8.371l-0.047-0.092l-0.102-0.002
		c-7.938-0.303-14.303-0.947-19.422-1.801l0.108,0.384c5.458,0.896,11.873,1.492,19.201,1.772c0.338,0.642,2.725,4.787,7.6,8.018
		c-2.867-0.276-14.047-1.461-25.007-4.104c-0.073-0.021-0.139-0.039-0.2-0.058l0.086,0.388c0.018,0.007,0.021,0.007,0.033,0.012
		C74.861,54.109,87.837,55.218,87.968,55.226"/>
	<path fill="#F5CED4" d="M45.623,26.042l0.021,0.361c3.569-0.341,6.862,2.039,9.817,7.059c2.394,4.055,4.543,9.81,6.414,17.136
		c2.676,10.495,3.997,21.222,4.357,24.46c-2.7-4.903-7.699-4.995-8.679-4.959c-0.808-16.96-2.955-29.137-6.384-36.178
		c-2.676-5.475-5.225-5.776-5.512-5.79l-0.015,0.35c0.392,0.024,9.649,1.016,11.568,41.808l0.002,0.181l0.194-0.008
		c0.055-0.003,6.242-0.496,8.945,5.627l0.345-0.083c-0.022-0.131-1.283-12.984-4.472-25.497c-1.891-7.344-4.067-13.147-6.459-17.227
		C52.746,28.131,49.328,25.692,45.623,26.042"/>
	<path fill="#F48120" d="M31.549,87.895l0.015,1.614c-0.814,0.316-1.617,0.464-2.404,0.472c-1.286,0.011-2.316-0.352-3.096-1.114
		c-0.787-0.766-1.174-1.783-1.184-3.063c-0.012-1.298,0.355-2.34,1.096-3.145c0.739-0.804,1.717-1.212,2.947-1.223
		c0.418-0.005,0.8,0.045,1.145,0.12c0.332,0.075,0.758,0.223,1.25,0.443l0.014,1.741c-0.828-0.531-1.594-0.797-2.303-0.789
		c-0.738,0.006-1.345,0.269-1.813,0.797c-0.462,0.524-0.698,1.189-0.692,1.993c0.008,0.853,0.272,1.514,0.791,2.001
		c0.514,0.496,1.2,0.734,2.077,0.729C30.019,88.465,30.736,88.284,31.549,87.895"/>
	<path fill="#F48120" d="M35.109,81.568l0.017,1.873l0.079-0.146c0.779-1.273,1.553-1.929,2.336-1.935
		c0.623-0.005,1.265,0.307,1.928,0.913l-0.847,1.446c-0.571-0.529-1.093-0.794-1.578-0.788c-0.521,0.002-0.97,0.259-1.363,0.77
		c-0.366,0.494-0.543,1.096-0.536,1.786l0.036,4.317l-1.657,0.015l-0.07-8.236L35.109,81.568z"/>
	<path fill="#F48120" d="M45.95,89.711l-0.011-1.076c-0.342,0.39-0.739,0.69-1.195,0.899c-0.439,0.213-0.877,0.318-1.332,0.321
		c-0.52,0.004-0.999-0.112-1.439-0.366c-0.453-0.256-0.787-0.6-1.016-1.044c-0.23-0.453-0.347-1.184-0.355-2.217l-0.041-4.708
		l1.621-0.015l0.041,4.687c0.008,0.862,0.145,1.458,0.391,1.806c0.258,0.338,0.699,0.505,1.324,0.498
		c0.787-0.009,1.445-0.39,1.99-1.16l-0.052-5.863l1.627-0.015l0.073,8.24L45.95,89.711z"/>
	<polygon fill="#F48120" points="48.992,81.448 56.029,81.385 51.719,88.147 56.086,88.107 56.101,89.622 48.886,89.685 
		53.176,82.922 49.004,82.958 	"/>
	<path fill="#F48120" d="M53.953,43.324c-3.319-13.971-7.807-14.789-8.287-14.841c-0.022,0.019-0.039,0.036-0.039,0.036
		c-3.65-0.228-3.348,2.886-3.348,2.886c-3.395,0.206-2.787,3.103-2.787,3.103s-0.018,0.027-0.048,0.08h0.013
		C39.567,35.329,40.781,40.013,53.953,43.324"/>
	<path fill="#F58320" d="M86.618,94.89c-0.213,0-0.411-0.039-0.595-0.117c-0.186-0.078-0.345-0.187-0.48-0.325
		c-0.135-0.138-0.241-0.299-0.319-0.483c-0.079-0.185-0.118-0.383-0.118-0.597c0-0.211,0.039-0.409,0.118-0.594
		c0.078-0.185,0.185-0.345,0.319-0.481c0.136-0.137,0.295-0.245,0.48-0.325c0.184-0.08,0.384-0.12,0.599-0.12
		c0.212,0,0.41,0.04,0.594,0.12c0.183,0.08,0.342,0.188,0.477,0.325c0.136,0.137,0.243,0.297,0.321,0.481s0.117,0.383,0.117,0.594
		c0,0.214-0.039,0.412-0.117,0.597s-0.186,0.346-0.321,0.483c-0.135,0.139-0.294,0.247-0.479,0.325
		C87.028,94.851,86.83,94.89,86.618,94.89 M86.618,94.598c0.171,0,0.33-0.031,0.476-0.094c0.145-0.063,0.271-0.148,0.377-0.259
		c0.105-0.11,0.188-0.241,0.249-0.391c0.059-0.149,0.089-0.311,0.089-0.481c0-0.173-0.03-0.332-0.089-0.482
		c-0.061-0.15-0.144-0.279-0.249-0.39c-0.106-0.11-0.232-0.197-0.377-0.262c-0.146-0.063-0.303-0.096-0.472-0.096
		c-0.171,0-0.33,0.032-0.475,0.096c-0.146,0.064-0.272,0.151-0.379,0.262c-0.108,0.11-0.192,0.239-0.251,0.39
		c-0.061,0.15-0.09,0.31-0.09,0.482c0,0.171,0.029,0.332,0.09,0.481c0.059,0.149,0.142,0.28,0.248,0.391s0.231,0.196,0.378,0.259
		C86.288,94.567,86.446,94.598,86.618,94.598 M86.09,92.593h0.593c0.096,0,0.178,0.014,0.246,0.041s0.125,0.063,0.171,0.106
		c0.045,0.043,0.077,0.093,0.098,0.146s0.03,0.105,0.03,0.159c0,0.099-0.024,0.188-0.074,0.269c-0.049,0.079-0.125,0.14-0.227,0.181
		l0.375,0.637h-0.331l-0.345-0.599h-0.244v0.599H86.09V92.593z M86.669,93.303c0.091,0,0.156-0.021,0.196-0.065
		c0.041-0.043,0.062-0.102,0.062-0.174c0-0.075-0.022-0.133-0.065-0.17c-0.044-0.038-0.113-0.057-0.209-0.057h-0.271v0.466H86.669z"
		/>
	<path fill="#F48120" d="M58.5,94.184l0.007,0.729c-0.437-0.323-0.809-0.485-1.121-0.48c-0.141,0-0.253,0.036-0.352,0.121
		c-0.093,0.075-0.133,0.164-0.133,0.28c0.001,0.06,0.026,0.139,0.09,0.219c0.055,0.071,0.236,0.224,0.561,0.422
		c0.313,0.209,0.531,0.417,0.648,0.581c0.108,0.179,0.169,0.368,0.171,0.548c0.003,0.317-0.105,0.586-0.319,0.787
		c-0.214,0.203-0.487,0.314-0.807,0.316c-0.416,0.003-0.838-0.16-1.289-0.481l0.117-0.671c0.46,0.36,0.841,0.536,1.128,0.533
		c0.143,0,0.255-0.03,0.344-0.107c0.088-0.076,0.134-0.176,0.132-0.299c0-0.084-0.034-0.181-0.09-0.268
		c-0.07-0.096-0.261-0.245-0.575-0.459c-0.313-0.208-0.525-0.394-0.625-0.566c-0.103-0.168-0.159-0.342-0.163-0.52
		c-0.002-0.313,0.106-0.565,0.308-0.757c0.212-0.204,0.49-0.297,0.841-0.3C57.743,93.807,58.112,93.929,58.5,94.184"/>
	<path fill="#F48120" d="M60.447,92.964l-0.131,0.94c0.192-0.086,0.401-0.123,0.63-0.125c0.428-0.003,0.79,0.153,1.09,0.479
		c0.287,0.313,0.441,0.719,0.444,1.215c0.007,0.58-0.188,1.095-0.575,1.532c-0.399,0.444-0.938,0.668-1.621,0.674l-0.455,0.005
		l-0.236,1.779l-0.695,0.008l0.614-4.66c-0.146,0.117-0.284,0.249-0.404,0.416c-0.109,0.177-0.177,0.258-0.197,0.26
		c-0.026-0.002-0.035-0.01-0.035-0.051c-0.001-0.128,0.068-0.3,0.206-0.527c0.135-0.231,0.301-0.435,0.5-0.594l0.171-1.345
		L60.447,92.964z M60.254,94.417L59.9,97.088l0.33-0.003c0.479-0.003,0.853-0.164,1.128-0.488c0.281-0.315,0.416-0.692,0.413-1.118
		c-0.003-0.365-0.113-0.663-0.299-0.871c-0.21-0.198-0.453-0.307-0.769-0.305C60.548,94.304,60.395,94.346,60.254,94.417"/>
	<path fill="#F48120" d="M65.951,96.56l-0.09,0.664c-0.376,0.268-0.779,0.415-1.215,0.419c-0.469,0.003-0.848-0.155-1.125-0.485
		c-0.291-0.302-0.432-0.737-0.436-1.281c-0.006-0.599,0.158-1.098,0.496-1.51c0.328-0.412,0.735-0.616,1.23-0.619
		c0.375-0.005,0.686,0.132,0.933,0.42c0.26,0.276,0.38,0.646,0.385,1.084c0,0.123-0.002,0.231-0.026,0.343l-2.291,0.02
		c-0.016,0.12-0.028,0.243-0.028,0.352c0.005,0.341,0.098,0.611,0.287,0.808c0.19,0.189,0.413,0.295,0.694,0.292
		C65.107,97.063,65.507,96.895,65.951,96.56 M63.916,95.136l1.538-0.015c-0.003-0.257-0.061-0.457-0.174-0.598
		c-0.12-0.149-0.278-0.22-0.497-0.217C64.387,94.31,64.097,94.577,63.916,95.136"/>
	<path fill="#F48120" d="M55.238,96.481l-0.09,0.664c-0.376,0.268-0.779,0.416-1.215,0.419c-0.469,0.003-0.848-0.155-1.125-0.484
		c-0.29-0.303-0.432-0.738-0.436-1.282c-0.006-0.599,0.158-1.098,0.496-1.51c0.328-0.412,0.735-0.616,1.23-0.619
		c0.375-0.003,0.686,0.132,0.934,0.42c0.26,0.276,0.379,0.646,0.385,1.085c0,0.123-0.002,0.23-0.026,0.342l-2.292,0.02
		c-0.016,0.12-0.027,0.243-0.027,0.352c0.004,0.341,0.096,0.611,0.286,0.808c0.191,0.189,0.413,0.295,0.695,0.292
		C54.394,96.984,54.794,96.816,55.238,96.481 M53.203,95.057l1.539-0.015c-0.004-0.257-0.061-0.457-0.175-0.598
		c-0.12-0.148-0.278-0.22-0.497-0.217C53.675,94.232,53.385,94.498,53.203,95.057"/>
	<path fill="#F48120" d="M67.849,93.819l-0.097,0.705l0.009,0.016c0.226-0.312,0.396-0.525,0.529-0.629
		c0.124-0.104,0.268-0.151,0.461-0.154c0.094-0.002,0.201,0.02,0.294,0.053l0.006,0.789c-0.148-0.084-0.293-0.115-0.428-0.115
		c-0.138,0.002-0.255,0.034-0.366,0.103c-0.108,0.068-0.229,0.222-0.385,0.434c-0.153,0.231-0.232,0.368-0.23,0.419l-0.27,2.068
		l-0.703,0.006l0.493-3.688L67.849,93.819z"/>
	<path fill="#F48120" d="M72.572,93.796l-0.487,3.669l-0.697,0.008l0.057-0.412l-0.017-0.02c-0.318,0.328-0.639,0.502-0.98,0.505
		c-0.339,0.003-0.617-0.134-0.862-0.422c-0.233-0.274-0.359-0.615-0.363-1.021c-0.007-0.695,0.218-1.261,0.642-1.727
		c0.44-0.447,1.048-0.685,1.844-0.69C72.021,93.684,72.312,93.715,72.572,93.796 M71.525,96.418l0.279-2.125
		c-0.073-0.009-0.143-0.006-0.215-0.004c-0.543,0.004-0.959,0.182-1.232,0.523c-0.281,0.354-0.424,0.748-0.421,1.169
		c0.003,0.303,0.064,0.541,0.219,0.727c0.137,0.187,0.317,0.285,0.517,0.284c0.168,0,0.351-0.089,0.558-0.26
		C71.423,96.561,71.526,96.458,71.525,96.418"/>
	<path fill="#F48120" d="M74.213,93.763l-0.091,0.636l0.021,0.017c0.38-0.477,0.785-0.713,1.207-0.717
		c0.274-0.003,0.497,0.097,0.651,0.304c0.164,0.209,0.238,0.485,0.242,0.813c0.001,0.095,0.001,0.195-0.02,0.294l-0.309,2.323
		l-0.696,0.008l0.318-2.364c0.013-0.083,0.013-0.157,0.011-0.229c-0.001-0.188-0.04-0.338-0.117-0.438
		c-0.084-0.099-0.184-0.153-0.303-0.151c-0.077,0-0.145,0.021-0.239,0.056c-0.087,0.03-0.174,0.09-0.276,0.162
		c-0.09,0.076-0.219,0.18-0.357,0.332c-0.142,0.146-0.221,0.24-0.228,0.279l-0.318,2.365l-0.691,0.006l0.488-3.686L74.213,93.763z"
		/>
	<polygon fill="#F48120" points="80.247,93.711 77.826,96.806 79.987,96.788 79.849,97.396 76.509,97.428 78.905,94.333 
		77.033,94.348 77.107,93.738 	"/>
	<path fill="#F48120" d="M84.008,93.698l-0.493,3.672l-0.699,0.003l0.065-0.412l-0.008-0.018c-0.321,0.326-0.659,0.502-0.988,0.505
		c-0.335,0.003-0.619-0.133-0.854-0.422c-0.24-0.275-0.361-0.616-0.366-1.023c-0.004-0.695,0.203-1.261,0.643-1.726
		c0.435-0.447,1.041-0.684,1.829-0.69C83.462,93.583,83.75,93.617,84.008,93.698 M82.965,96.318l0.284-2.123
		c-0.08-0.008-0.145-0.006-0.221-0.008c-0.548,0.005-0.962,0.184-1.228,0.526c-0.295,0.354-0.432,0.747-0.426,1.171
		c0.001,0.302,0.069,0.539,0.215,0.722c0.141,0.189,0.313,0.287,0.525,0.287c0.161-0.003,0.341-0.091,0.545-0.259
		C82.852,96.462,82.952,96.357,82.965,96.318"/>
	<path fill="#F48120" d="M29.699,93.804l-0.489,3.689l-0.683,0.008L29,93.81L29.699,93.804z M29.064,92.67
		c-0.002-0.12,0.043-0.212,0.117-0.296c0.072-0.073,0.168-0.117,0.284-0.118c0.103-0.004,0.194,0.039,0.281,0.113
		c0.075,0.081,0.11,0.175,0.11,0.293c0.002,0.105-0.029,0.197-0.106,0.282c-0.085,0.075-0.175,0.12-0.276,0.12
		c-0.119,0.001-0.213-0.041-0.289-0.115C29.109,92.864,29.064,92.774,29.064,92.67"/>
	<path fill="#F48120" d="M33.742,91.863l-0.73,5.589c-0.274,0.078-0.59,0.126-0.943,0.129c-0.628,0.005-1.102-0.137-1.447-0.431
		c-0.34-0.296-0.504-0.718-0.508-1.26c-0.006-0.535,0.201-1.033,0.643-1.499c0.426-0.475,1.015-0.719,1.761-0.726l0.293-0.001
		l0.241-1.796L33.742,91.863z M32.376,96.983l0.358-2.74H32.55c-0.524,0.005-0.938,0.182-1.252,0.491
		c-0.326,0.313-0.479,0.702-0.476,1.14c0.003,0.355,0.109,0.639,0.32,0.839c0.206,0.188,0.522,0.297,0.921,0.291
		C32.197,97.002,32.306,96.991,32.376,96.983"/>
	<path fill="#F48120" d="M41.11,100.761l0.071-0.551c-0.021,0.169-0.043,0.337-0.065,0.506"/>
	<path fill="#F48120" d="M37.341,93.757l-0.496,3.671l-0.684,0.006l0.057-0.413l-0.024-0.02c-0.31,0.329-0.644,0.504-0.981,0.508
		c-0.326,0.003-0.607-0.136-0.851-0.424c-0.238-0.276-0.36-0.616-0.364-1.022c-0.007-0.694,0.211-1.262,0.643-1.726
		c0.435-0.447,1.052-0.684,1.83-0.691C36.79,93.645,37.085,93.675,37.341,93.757 M36.298,96.378l0.289-2.125
		c-0.08-0.008-0.154-0.005-0.225-0.006c-0.546,0.004-0.959,0.183-1.243,0.525c-0.278,0.354-0.418,0.748-0.415,1.17
		c0.004,0.302,0.075,0.539,0.219,0.725c0.146,0.188,0.314,0.286,0.526,0.284c0.161,0,0.345-0.089,0.542-0.257
		C36.189,96.521,36.291,96.417,36.298,96.378"/>
	<path fill="#F48120" d="M47.946,93.795l-0.09,0.635l0.021,0.017c0.379-0.476,0.784-0.713,1.206-0.717
		c0.275-0.003,0.497,0.097,0.652,0.304c0.163,0.209,0.237,0.485,0.241,0.813c0.002,0.095,0.002,0.195-0.02,0.294l-0.308,2.323
		l-0.697,0.008l0.319-2.364c0.011-0.083,0.011-0.157,0.01-0.229c-0.002-0.188-0.041-0.338-0.117-0.438
		c-0.084-0.099-0.183-0.153-0.303-0.151c-0.077,0-0.145,0.021-0.239,0.056c-0.087,0.03-0.175,0.09-0.276,0.162
		c-0.09,0.076-0.219,0.18-0.357,0.332c-0.141,0.146-0.221,0.24-0.227,0.279l-0.318,2.366l-0.691,0.007l0.486-3.688L47.946,93.795z"
		/>
	<path fill="#F48120" d="M42.23,93.652c-0.746,0.008-1.336,0.243-1.76,0.703c-0.441,0.452-0.65,0.935-0.643,1.453
		c0.003,0.525,0.168,0.935,0.507,1.222c0.345,0.285,0.82,0.422,1.448,0.418c0.353-0.003,0.52-0.126,0.52-0.126l0.073-0.555
		c-0.069,0.008-0.464,0.12-0.599,0.121c-0.398,0.005-0.715-0.101-0.92-0.282c-0.211-0.195-0.316-0.469-0.319-0.813
		c-0.003-0.424,0.147-0.801,0.474-1.105c0.316-0.3,0.729-0.473,1.254-0.476h0.451c0.031-0.182,0.061-0.363,0.092-0.545
		C42.474,93.662,42.564,93.657,42.23,93.652"/>
	<path fill="#F48120" d="M44.841,93.653c0.703-0.012,1.429,0.444,1.627,1.27c0.197,0.827-0.221,1.648-0.744,2.083
		c-0.743,0.614-1.896,0.614-2.46-0.162c-0.415-0.571-0.397-1.409-0.084-2.053C43.51,94.111,44.162,93.664,44.841,93.653
		 M43.934,96.632c0.319,0.293,0.845,0.34,1.235,0.121c0.738-0.413,0.947-1.743,0.35-2.241c-0.352-0.293-0.941-0.262-1.345,0.029
		C43.517,95.014,43.393,96.137,43.934,96.632"/>
	<polygon fill="#F48120" points="28.587,91.876 26.357,97.434 25.924,97.434 24.904,91.917 25.714,91.908 26.34,95.9 27.722,91.885 
			"/>
</g>
</svg>
