<?xml version="1.0" encoding="utf-8"?>
<!-- Generator: Adobe Illustrator 16.0.0, SVG Export Plug-In . SVG Version: 6.00 Build 0)  -->
<!DOCTYPE svg PUBLIC "-//W3C//DTD SVG 1.1//EN" "http://www.w3.org/Graphics/SVG/1.1/DTD/svg11.dtd">
<svg version="1.1" id="Layer_1" xmlns="http://www.w3.org/2000/svg" xmlns:xlink="http://www.w3.org/1999/xlink" x="0px" y="0px"
	 width="130px" height="130px" viewBox="0 0 130 130" enable-background="new 0 0 130 130" xml:space="preserve">
<g>
	<path fill="#FFFFFF" d="M101.008,109.038H28.992c-3.586,0-6.492-2.907-6.492-6.493v-75.09c0-3.586,2.906-6.493,6.492-6.493h72.016
		c3.586,0,6.492,2.907,6.492,6.493v75.09C107.5,106.131,104.594,109.038,101.008,109.038"/>
	<g>
		<defs>
			<path id="SVGID_1_" d="M30.748,22.541c-3.59,0-6.5,2.91-6.5,6.5v79.996h81.505V29.041c0-3.59-2.91-6.5-6.502-6.5H30.748z"/>
		</defs>
		<clipPath id="SVGID_2_">
			<use xlink:href="#SVGID_1_"  overflow="visible"/>
		</clipPath>
		<defs>
			<filter id="Adobe_OpacityMaskFilter" filterUnits="userSpaceOnUse" x="24.248" y="22.541" width="81.505" height="86.496">
				<feColorMatrix  type="matrix" values="1 0 0 0 0  0 1 0 0 0  0 0 1 0 0  0 0 0 1 0"/>
			</filter>
		</defs>
		<mask maskUnits="userSpaceOnUse" x="24.248" y="22.541" width="81.505" height="86.496" id="SVGID_3_">
			<g filter="url(#Adobe_OpacityMaskFilter)">
				
					<linearGradient id="SVGID_4_" gradientUnits="userSpaceOnUse" x1="-228.5811" y1="3470.0933" x2="-227.5811" y2="3470.0933" gradientTransform="matrix(0 -86.497 -86.497 0 300217.6875 -19662.4863)">
					<stop  offset="0" style="stop-color:#000000"/>
					<stop  offset="0.0485" style="stop-color:#000000"/>
					<stop  offset="0.1009" style="stop-color:#474747"/>
					<stop  offset="0.1636" style="stop-color:#959595"/>
					<stop  offset="0.2155" style="stop-color:#CECECE"/>
					<stop  offset="0.2537" style="stop-color:#F2F2F2"/>
					<stop  offset="0.2742" style="stop-color:#FFFFFF"/>
					<stop  offset="0.9983" style="stop-color:#FFFFFF"/>
					<stop  offset="1" style="stop-color:#FFFFFF"/>
				</linearGradient>
				<rect x="24.248" y="22.541" clip-path="url(#SVGID_2_)" fill="url(#SVGID_4_)" width="81.505" height="86.496"/>
			</g>
		</mask>
		
			<linearGradient id="SVGID_5_" gradientUnits="userSpaceOnUse" x1="-228.5811" y1="3470.0933" x2="-227.5811" y2="3470.0933" gradientTransform="matrix(0 -86.497 -86.497 0 300217.6875 -19662.4863)">
			<stop  offset="0" style="stop-color:#FFFFFF"/>
			<stop  offset="0.0485" style="stop-color:#FFFFFF"/>
			<stop  offset="0.1079" style="stop-color:#CFEAF7"/>
			<stop  offset="0.1855" style="stop-color:#97D2EE"/>
			<stop  offset="0.2432" style="stop-color:#73C3E8"/>
			<stop  offset="0.2742" style="stop-color:#66BDE6"/>
			<stop  offset="0.9983" style="stop-color:#66BDE6"/>
			<stop  offset="1" style="stop-color:#66BDE6"/>
		</linearGradient>
		
			<rect x="24.248" y="22.541" clip-path="url(#SVGID_2_)" mask="url(#SVGID_3_)" fill="url(#SVGID_5_)" width="81.505" height="86.496"/>
	</g>
	<g>
		<defs>
			<path id="SVGID_6_" d="M24.248,86.097v12.922c1.537,0,3.075,0.002,4.611,0.002c3.5-5.124,10.117-13.123,20.986-18.424
				c26.159-12.757,52.926,1.831,55.907,3.52v-2.153c-6.812-3.878-19.53-9.794-36.209-10.063c-0.257-0.004-0.592-0.008-0.999-0.008
				C62.732,71.891,42.203,72.728,24.248,86.097"/>
		</defs>
		<clipPath id="SVGID_7_">
			<use xlink:href="#SVGID_6_"  overflow="visible"/>
		</clipPath>
		<defs>
			<filter id="Adobe_OpacityMaskFilter_1_" filterUnits="userSpaceOnUse" x="24.248" y="67.84" width="81.505" height="31.181">
				<feColorMatrix  type="matrix" values="1 0 0 0 0  0 1 0 0 0  0 0 1 0 0  0 0 0 1 0"/>
			</filter>
		</defs>
		<mask maskUnits="userSpaceOnUse" x="24.248" y="67.84" width="81.505" height="31.181" id="SVGID_8_">
			<g filter="url(#Adobe_OpacityMaskFilter_1_)">
				
					<linearGradient id="SVGID_9_" gradientUnits="userSpaceOnUse" x1="-147.8628" y1="3469.8208" x2="-146.8628" y2="3469.8208" gradientTransform="matrix(0 -27.13 -27.13 0 94201.2578 -3912.4866)">
					<stop  offset="0" style="stop-color:#000000"/>
					<stop  offset="0.0074" style="stop-color:#090909"/>
					<stop  offset="0.0476" style="stop-color:#373737"/>
					<stop  offset="0.093" style="stop-color:#626262"/>
					<stop  offset="0.1417" style="stop-color:#888888"/>
					<stop  offset="0.1948" style="stop-color:#A8A8A8"/>
					<stop  offset="0.2534" style="stop-color:#C4C4C4"/>
					<stop  offset="0.3196" style="stop-color:#DADADA"/>
					<stop  offset="0.3969" style="stop-color:#EBEBEB"/>
					<stop  offset="0.4924" style="stop-color:#F6F6F6"/>
					<stop  offset="0.6265" style="stop-color:#FDFDFD"/>
					<stop  offset="0.9987" style="stop-color:#FFFFFF"/>
					<stop  offset="1" style="stop-color:#FFFFFF"/>
				</linearGradient>
				<rect x="24.248" y="67.84" clip-path="url(#SVGID_7_)" fill="url(#SVGID_9_)" width="81.505" height="31.181"/>
			</g>
		</mask>
		
			<linearGradient id="SVGID_10_" gradientUnits="userSpaceOnUse" x1="-147.8623" y1="3469.8228" x2="-146.8623" y2="3469.8228" gradientTransform="matrix(0 -27.13 -27.13 0 94201.2891 -3912.4709)">
			<stop  offset="0" style="stop-color:#FFFFFF"/>
			<stop  offset="0.0411" style="stop-color:#EBF7FC"/>
			<stop  offset="0.1101" style="stop-color:#D0ECF7"/>
			<stop  offset="0.1894" style="stop-color:#BAE3F3"/>
			<stop  offset="0.2819" style="stop-color:#AADCF0"/>
			<stop  offset="0.3962" style="stop-color:#9ED7EE"/>
			<stop  offset="0.5564" style="stop-color:#97D4ED"/>
			<stop  offset="0.9987" style="stop-color:#95D3ED"/>
			<stop  offset="1" style="stop-color:#95D3ED"/>
		</linearGradient>
		
			<rect x="24.248" y="67.84" clip-path="url(#SVGID_7_)" mask="url(#SVGID_8_)" fill="url(#SVGID_10_)" width="81.505" height="31.181"/>
	</g>
	<path fill="#FFFFFF" d="M105.725,61.336l0.027-16.986L63.527,79.264L48.557,67.096c-2.758-2.24-6.808-1.822-9.047,0.935
		c-2.24,2.756-1.822,6.807,0.934,9.047l19.724,16.029c2.46,2,6.009,1.761,8.183-0.461L105.725,61.336z"/>
	<path fill="#4F230E" d="M29.941,36.753c0.031-6.171,4.168-10.274,10.308-10.226c6.135,0.049,10.205,4.201,10.169,10.377
		c-0.033,5.876-4.283,9.963-10.318,9.924C34.061,46.789,29.913,42.676,29.941,36.753 M45.79,36.062
		c-0.063-1.794-0.574-4.075-2.944-5.273c-1.992-1.006-4.164-0.998-5.965,0.379c-2.32,1.777-2.624,4.396-2.207,7.092
		c0.342,2.195,1.385,3.943,3.652,4.683c0.176,0.057,0.361,0.088,0.545,0.122C42.994,43.837,45.77,41.282,45.79,36.062"/>
	<path fill="#4F230E" d="M56.646,39.975h4.125c1.412,3.189,3.887,4.273,7.135,3.159c0.973-0.333,1.814-0.975,1.643-1.967
		c-0.126-0.723-0.818-1.606-1.49-1.922c-1.244-0.583-2.673-0.764-4.002-1.184c-1.457-0.46-2.976-0.837-4.318-1.538
		c-2.86-1.493-3.483-5.366-1.094-7.537c1.176-1.066,2.822-1.809,4.381-2.212c2.435-0.63,4.92-0.302,7.207,0.848
		c1.986,1,3.068,2.63,3.164,5.028h-4.28c-0.888-2.699-2.841-3.18-5.849-2.483c-0.961,0.224-1.681,0.948-1.482,1.902
		c0.127,0.614,0.816,1.355,1.424,1.58c1.564,0.576,3.236,0.853,4.839,1.333c1.196,0.358,2.448,0.685,3.509,1.31
		c3.096,1.825,3.452,5.848,0.836,8.318c-3.311,3.126-11.041,2.943-14.199-0.334C57.02,43.058,56.55,41.802,56.646,39.975"/>
	<path fill="#4F230E" d="M99.588,38.856c-0.319,4.944-4.277,8.164-9.523,7.963c-5.912-0.228-9.898-4.329-9.833-10.115
		c0.067-6.042,4.03-10.042,10.081-10.177c4.9-0.109,8.842,2.871,9.036,7.002c-1.241-0.012-2.481-0.024-3.722-0.035
		c-0.264-0.609-0.795-1.58-1.828-2.285c-2.336-1.599-5.963-0.97-7.731,1.133c-1.071,1.273-1.205,2.782-1.281,3.647
		c-0.047,0.538-0.147,2.323,0.822,4.226c0.333,0.654,0.716,1.405,1.54,2.031c1.593,1.211,3.527,0.955,3.951,0.899
		c3.434-0.453,5.082-4.027,5.205-4.305C97.399,38.846,98.493,38.852,99.588,38.856"/>
	<path fill="#4F230E" d="M38.812,51.357c0.517-0.021,1.033-0.042,1.549-0.063c1.31,1.689,2.621,3.377,3.931,5.067v-5.077h1.781
		v7.592c-0.496,0.033-0.992,0.066-1.488,0.1c-1.316-1.688-2.633-3.377-3.951-5.065v5.025h-1.821V51.357z"/>
	<path fill="#4F230E" d="M83.475,51.273c1.583,0,3.073-0.134,4.529,0.032c2.021,0.229,3.135,1.705,3.121,3.788
		c-0.016,2.073-1.166,3.588-3.137,3.8c-1.455,0.157-2.941,0.03-4.514,0.03V51.273z M85.449,52.768v4.74
		c1.299,0.066,2.713,0.418,3.31-0.919c0.364-0.818,0.358-2.071-0.013-2.887C88.143,52.38,86.732,52.721,85.449,52.768"/>
	<path fill="#4F230E" d="M71.137,52.709h-4.178v-1.407h7.057c0,0.484,0,0.969,0.002,1.454c-1.617,1.587-3.234,3.174-4.852,4.761
		h4.544c-0.002,0.476-0.005,0.95-0.007,1.424c-2.482-0.016-4.963-0.033-7.443-0.051v-1.311
		C67.885,55.955,69.512,54.332,71.137,52.709"/>
	<path fill="#4F230E" d="M29.481,58.925c1.034-2.409,2.069-4.817,3.103-7.227c0.779-0.009,1.559-0.017,2.338-0.026
		c1.023,2.412,2.048,4.825,3.07,7.237l-2.298,0.032c-0.227-0.611-0.454-1.223-0.682-1.834h-2.726
		c-0.291,0.604-0.584,1.211-0.875,1.817H29.481z M34.787,55.937c-0.336-0.887-0.627-1.65-1.047-2.759
		c-0.414,1.094-0.712,1.872-1.049,2.759H34.787z"/>
	<path fill="#4F230E" d="M46.924,58.925c1.033-2.409,2.067-4.817,3.102-7.227c0.78-0.009,1.559-0.017,2.338-0.026
		c1.024,2.412,2.049,4.825,3.071,7.237l-2.298,0.032c-0.229-0.611-0.455-1.223-0.682-1.834h-2.727
		c-0.292,0.604-0.583,1.211-0.874,1.817H46.924z M52.229,55.937c-0.336-0.887-0.626-1.65-1.046-2.759
		c-0.415,1.094-0.712,1.872-1.05,2.759H52.229z"/>
	<path fill="#4F230E" d="M74.109,58.925c1.033-2.409,2.068-4.817,3.102-7.227c0.78-0.009,1.559-0.017,2.338-0.026
		c1.024,2.412,2.049,4.825,3.071,7.237l-2.298,0.032c-0.229-0.611-0.455-1.223-0.682-1.834h-2.727
		c-0.292,0.604-0.583,1.211-0.874,1.817H74.109z M79.414,55.937c-0.336-0.887-0.626-1.65-1.046-2.759
		c-0.415,1.094-0.712,1.872-1.049,2.759H79.414z"/>
	<path fill="#4F230E" d="M91.561,58.925c1.035-2.409,2.07-4.817,3.104-7.227c0.779-0.009,1.559-0.017,2.338-0.026l3.07,7.237
		l-2.298,0.032l-0.681-1.834h-2.728c-0.291,0.604-0.583,1.211-0.874,1.817H91.561z M96.866,55.937
		c-0.336-0.887-0.625-1.65-1.045-2.759c-0.416,1.094-0.712,1.872-1.05,2.759H96.866z"/>
	<path fill="#4F230E" d="M56.307,51.284h1.874v6.268h4.129c0.041,0.491,0.073,0.878,0.114,1.38h-6.117V51.284z"/>
	<rect x="63.537" y="51.273" fill="#4F230E" width="1.781" height="7.69"/>
	<path fill="#4F230E" d="M27.773,102.399c-0.088,0.399-0.172,0.745-0.25,1.035l-0.67,2.596h-0.686l-1.348-4.35h0.678l0.773,2.711
		c0.103,0.356,0.18,0.643,0.232,0.855h0.018c0.047-0.22,0.125-0.537,0.231-0.952l0.694-2.614h0.677l0.755,2.614
		c0.102,0.354,0.186,0.671,0.252,0.952h0.018c0.071-0.281,0.148-0.566,0.233-0.855l0.774-2.711h0.678l-1.385,4.35h-0.711
		l-0.69-2.596c-0.083-0.309-0.168-0.653-0.256-1.035H27.773z"/>
	<path fill="#4F230E" d="M34.146,102.399c-0.09,0.399-0.172,0.745-0.25,1.035l-0.672,2.596H32.54l-1.349-4.35h0.679l0.774,2.711
		c0.102,0.356,0.18,0.643,0.231,0.855h0.019c0.045-0.22,0.123-0.537,0.23-0.952l0.693-2.614h0.678l0.755,2.614
		c0.103,0.354,0.187,0.671,0.252,0.952h0.019c0.07-0.281,0.147-0.566,0.232-0.855l0.773-2.711h0.679l-1.384,4.35h-0.713
		l-0.689-2.596c-0.083-0.309-0.168-0.653-0.256-1.035H34.146z"/>
	<path fill="#4F230E" d="M40.518,102.399c-0.089,0.399-0.172,0.745-0.25,1.035l-0.671,2.596h-0.685l-1.349-4.35h0.679l0.773,2.711
		c0.102,0.356,0.18,0.643,0.232,0.855h0.018c0.046-0.22,0.124-0.537,0.23-0.952l0.694-2.614h0.677l0.756,2.614
		c0.102,0.354,0.186,0.671,0.252,0.952h0.018c0.07-0.281,0.148-0.566,0.232-0.855l0.774-2.711h0.679l-1.385,4.35h-0.712l-0.69-2.596
		c-0.082-0.309-0.168-0.653-0.256-1.035H40.518z"/>
	<path fill="#4F230E" d="M50.804,104.452l0.534,0.195c-0.098,0.138-0.208,0.27-0.332,0.396c-0.604,0.615-1.333,0.923-2.188,0.923
		c-0.853,0-1.58-0.308-2.185-0.923s-0.906-1.359-0.906-2.23c0-0.867,0.302-1.608,0.906-2.224c0.604-0.616,1.332-0.924,2.185-0.924
		c0.854,0,1.584,0.308,2.188,0.924c0.124,0.126,0.234,0.256,0.332,0.39l-0.534,0.2c-0.058-0.068-0.117-0.138-0.181-0.206
		c-0.498-0.505-1.101-0.757-1.805-0.757c-0.703,0-1.304,0.253-1.802,0.759c-0.499,0.507-0.749,1.119-0.749,1.838
		s0.25,1.332,0.749,1.841c0.498,0.508,1.099,0.763,1.802,0.763c0.704,0,1.307-0.255,1.805-0.763
		C50.687,104.588,50.746,104.521,50.804,104.452"/>
	<path fill="#4F230E" d="M54.322,99.665c0.854,0,1.584,0.308,2.186,0.923c0.602,0.616,0.904,1.359,0.904,2.23
		c0,0.868-0.303,1.609-0.904,2.224c-0.602,0.616-1.331,0.924-2.186,0.924c-0.852,0-1.58-0.308-2.184-0.924
		c-0.604-0.614-0.906-1.355-0.906-2.224c0-0.871,0.303-1.614,0.906-2.23C52.742,99.973,53.471,99.665,54.322,99.665 M52.516,100.979
		c-0.499,0.508-0.749,1.121-0.749,1.84s0.25,1.331,0.749,1.838c0.499,0.506,1.102,0.759,1.807,0.759
		c0.704,0,1.307-0.253,1.805-0.759c0.5-0.507,0.75-1.119,0.75-1.838s-0.25-1.332-0.75-1.84c-0.498-0.509-1.101-0.763-1.805-0.763
		C53.617,100.216,53.015,100.47,52.516,100.979"/>
	<path fill="#4F230E" d="M62.937,100.133c-0.125-0.082-0.256-0.154-0.396-0.217c-0.103-0.047-0.494-0.22-1.051-0.27
		c-0.17-0.016-0.387-0.022-0.634,0c-0.556,0.05-0.949,0.223-1.051,0.27c-0.14,0.063-0.271,0.135-0.396,0.217
		c-0.824,0.537-1.279,1.491-1.279,2.475v3.198h0.586v-3.12c0-0.997,0.578-1.936,1.508-2.296c0.354-0.138,0.749-0.161,0.749-0.161
		c0.157-0.012,0.295-0.008,0.399,0c0,0,0.396,0.023,0.75,0.161c0.93,0.36,1.506,1.299,1.506,2.296v3.12h0.588v-3.198
		C64.217,101.624,63.76,100.67,62.937,100.133"/>
	<path fill="#4F230E" d="M65.703,101.37l-0.059,4.436h-0.506c-0.006-2.063-0.011-4.127-0.017-6.19
		c-0.002-0.786,0.38-1.522,1.024-1.974c0.904-0.626,1.871-0.478,2.074-0.441c-0.009,0.209-0.017,0.419-0.024,0.629
		c-0.165-0.038-0.831-0.17-1.515,0.209c-0.176,0.099-0.324,0.213-0.447,0.335c-0.402,0.397-0.602,0.961-0.602,1.527v0.7
		c0.182-0.167,0.413-0.348,0.699-0.512c0.693-0.396,1.362-0.491,1.771-0.513c-0.016,0.179-0.031,0.356-0.047,0.536
		c-0.281,0.014-0.809,0.078-1.375,0.396C66.178,100.792,65.866,101.151,65.703,101.37"/>
	<path fill="#4F230E" d="M73.852,99.665c0.855,0,1.584,0.308,2.187,0.923c0.602,0.616,0.903,1.359,0.903,2.23
		c0,0.868-0.302,1.609-0.903,2.224c-0.603,0.616-1.331,0.924-2.187,0.924c-0.851,0-1.578-0.308-2.183-0.924
		c-0.604-0.614-0.906-1.355-0.906-2.224c0-0.871,0.302-1.614,0.906-2.23C72.273,99.973,73.001,99.665,73.852,99.665 M72.046,100.979
		c-0.499,0.508-0.749,1.121-0.749,1.84s0.25,1.331,0.749,1.838c0.499,0.506,1.101,0.759,1.806,0.759s1.309-0.253,1.807-0.759
		c0.498-0.507,0.748-1.119,0.748-1.838s-0.25-1.332-0.748-1.84c-0.498-0.509-1.102-0.763-1.807-0.763S72.545,100.47,72.046,100.979"
		/>
	<path fill="#4F230E" d="M83.228,103.707c0,0.319-0.047,0.61-0.14,0.873c-0.094,0.263-0.225,0.487-0.396,0.674
		c-0.171,0.187-0.377,0.332-0.619,0.434c-0.242,0.104-0.513,0.155-0.813,0.155c-0.311,0-0.586-0.052-0.83-0.155
		c-0.243-0.102-0.45-0.247-0.62-0.434c-0.171-0.187-0.302-0.411-0.392-0.674c-0.092-0.263-0.137-0.554-0.137-0.873
		c0-0.322,0.047-0.615,0.141-0.878s0.225-0.487,0.396-0.676s0.378-0.334,0.621-0.437c0.244-0.103,0.517-0.155,0.815-0.155
		c0.307,0,0.582,0.053,0.828,0.155c0.244,0.103,0.451,0.248,0.621,0.437c0.168,0.188,0.299,0.413,0.389,0.676
		C83.183,103.092,83.228,103.385,83.228,103.707 M82.519,103.707c0-0.251-0.03-0.475-0.094-0.67s-0.15-0.361-0.263-0.497
		c-0.111-0.135-0.246-0.238-0.399-0.308c-0.155-0.07-0.324-0.104-0.509-0.104c-0.184,0-0.353,0.034-0.506,0.104
		c-0.155,0.069-0.289,0.173-0.4,0.308c-0.113,0.136-0.201,0.302-0.264,0.497s-0.094,0.419-0.094,0.67
		c0,0.248,0.031,0.47,0.094,0.665c0.063,0.196,0.151,0.36,0.266,0.494c0.113,0.135,0.247,0.236,0.402,0.307
		c0.154,0.07,0.324,0.104,0.508,0.104c0.183,0,0.352-0.034,0.505-0.104s0.286-0.172,0.397-0.307
		c0.112-0.134,0.199-0.298,0.263-0.494C82.488,104.177,82.519,103.955,82.519,103.707"/>
	<path fill="#4F230E" d="M86.578,102.209h-0.053c-0.16,0-0.316,0.015-0.472,0.043s-0.3,0.071-0.435,0.13
		c-0.137,0.058-0.259,0.131-0.369,0.217c-0.108,0.085-0.199,0.187-0.272,0.304v2.832H84.3v-4.064h0.524l0.131,0.645h0.014
		c0.066-0.104,0.15-0.203,0.247-0.294c0.098-0.092,0.208-0.171,0.331-0.239c0.121-0.069,0.256-0.122,0.402-0.161
		c0.146-0.038,0.299-0.058,0.459-0.058c0.028,0,0.059,0,0.09,0.001c0.031,0.002,0.058,0.005,0.08,0.008V102.209z"/>
	<path fill="#4F230E" d="M88.91,101.563c0.182,0.003,0.338,0.024,0.473,0.068c0.134,0.043,0.248,0.097,0.346,0.16
		c0.096,0.064,0.172,0.127,0.229,0.191c0.058,0.062,0.097,0.112,0.117,0.149h0.018l0.14-0.463h0.513v4.307
		c0,0.313-0.054,0.587-0.158,0.818c-0.105,0.233-0.252,0.427-0.442,0.58c-0.188,0.155-0.417,0.27-0.685,0.346
		c-0.267,0.074-0.563,0.112-0.885,0.112c-0.274,0-0.52-0.022-0.736-0.07c-0.215-0.047-0.385-0.103-0.506-0.169v-0.561
		c0.099,0.04,0.194,0.073,0.287,0.101c0.094,0.027,0.19,0.05,0.289,0.068c0.1,0.019,0.2,0.032,0.305,0.041
		c0.103,0.008,0.218,0.012,0.343,0.012c0.487,0,0.86-0.11,1.12-0.334c0.26-0.222,0.389-0.561,0.389-1.018v-0.544h-0.012
		c-0.149,0.16-0.322,0.281-0.52,0.362s-0.422,0.122-0.676,0.122c-0.115,0-0.242-0.013-0.376-0.039
		c-0.134-0.025-0.269-0.068-0.401-0.13c-0.136-0.062-0.264-0.143-0.386-0.244s-0.231-0.229-0.323-0.381
		c-0.095-0.152-0.168-0.333-0.227-0.542c-0.057-0.208-0.085-0.449-0.085-0.723c0-0.38,0.054-0.709,0.158-0.988
		c0.104-0.276,0.243-0.507,0.415-0.689c0.173-0.183,0.369-0.319,0.591-0.409C88.444,101.607,88.674,101.563,88.91,101.563
		 M87.769,103.729c0,0.318,0.039,0.58,0.118,0.783c0.079,0.201,0.178,0.36,0.3,0.473c0.121,0.112,0.252,0.189,0.396,0.231
		c0.144,0.041,0.278,0.062,0.406,0.062c0.211,0,0.407-0.041,0.592-0.124c0.184-0.083,0.346-0.196,0.484-0.338v-2.127
		c-0.037-0.052-0.09-0.11-0.156-0.176c-0.067-0.065-0.146-0.126-0.234-0.182c-0.09-0.056-0.19-0.103-0.305-0.142
		c-0.113-0.038-0.238-0.058-0.371-0.058c-0.201,0-0.379,0.038-0.531,0.117c-0.154,0.079-0.282,0.188-0.387,0.328
		c-0.103,0.14-0.181,0.308-0.232,0.503C87.795,103.275,87.769,103.491,87.769,103.729"/>
	<path fill="#4F230E" d="M97.816,105.735h-0.678v-2.615c0-0.177-0.02-0.327-0.059-0.451s-0.096-0.227-0.172-0.306
		c-0.073-0.08-0.162-0.139-0.266-0.176s-0.22-0.057-0.348-0.057c-0.242,0-0.462,0.064-0.661,0.191
		c-0.198,0.127-0.376,0.302-0.532,0.524v2.889h-0.68v-4.065h0.525l0.132,0.564h0.013c0.076-0.094,0.158-0.182,0.247-0.263
		c0.089-0.082,0.188-0.153,0.297-0.216c0.11-0.06,0.229-0.107,0.361-0.142s0.274-0.052,0.429-0.052c0.309,0,0.566,0.073,0.77,0.219
		c0.205,0.145,0.361,0.344,0.474,0.595h0.017c0.185-0.254,0.395-0.454,0.631-0.598c0.236-0.145,0.513-0.216,0.828-0.216
		c0.146,0,0.301,0.02,0.465,0.06s0.313,0.114,0.451,0.22c0.137,0.108,0.252,0.256,0.342,0.444s0.136,0.43,0.136,0.728v2.722h-0.679
		v-2.615c0-0.177-0.02-0.327-0.059-0.451s-0.096-0.227-0.171-0.306c-0.074-0.08-0.163-0.139-0.267-0.176s-0.219-0.057-0.348-0.057
		c-0.242,0-0.463,0.064-0.662,0.191c-0.201,0.127-0.379,0.302-0.537,0.524V105.735z"/>
	<polygon fill="#4F230E" points="103.246,103.236 104.374,101.67 105.122,101.67 103.605,103.68 105.18,105.735 104.445,105.735 
		103.229,104.109 103.211,104.109 102.012,105.735 101.277,105.735 102.852,103.664 101.334,101.67 102.082,101.67 103.229,103.236 
			"/>
	<rect x="91.794" y="104.941" fill="#4F230E" width="1.06" height="1.059"/>
	<rect x="44.191" y="104.971" fill="#4F230E" width="1.059" height="1.06"/>
	<rect x="77.167" y="104.941" fill="#4F230E" width="1.06" height="1.059"/>
	<rect x="68.793" y="100.175" fill="#4F230E" width="0.506" height="5.63"/>
	<polygon fill="#4F230E" points="69.295,99.79 68.793,99.794 68.793,99.016 69.762,98.093 	"/>
</g>
</svg>
