<?xml version="1.0" encoding="utf-8"?>
<!-- Generator: Adobe Illustrator 16.0.0, SVG Export Plug-In . SVG Version: 6.00 Build 0)  -->
<!DOCTYPE svg PUBLIC "-//W3C//DTD SVG 1.1//EN" "http://www.w3.org/Graphics/SVG/1.1/DTD/svg11.dtd">
<svg version="1.1" id="Layer_1" xmlns="http://www.w3.org/2000/svg" xmlns:xlink="http://www.w3.org/1999/xlink" x="0px" y="0px"
	 width="120px" height="32px" viewBox="0 0 120 32" enable-background="new 0 0 120 32" xml:space="preserve">
<path fill="#FFFFFF" d="M353.986,92.512c-0.999-1.293-2.261-2.326-3.76-3.075c-1.688-0.844-3.683-1.271-5.928-1.271
	c-2.806,0-5.346,0.681-7.552,2.024c-2.205,1.345-3.974,3.214-5.255,5.557c-1.281,2.341-1.931,5.05-1.931,8.05
	c0,3.002,0.649,5.72,1.931,8.079c1.28,2.362,3.048,4.253,5.253,5.616c2.207,1.363,4.748,2.056,7.554,2.056
	c2.527,0,4.618-0.513,6.214-1.521c1.391-0.879,2.557-1.896,3.474-3.031v3.608c0,0.126,0.103,0.229,0.229,0.229h7.571
	c0.126,0,0.229-0.103,0.229-0.229V89.109c0-0.127-0.103-0.229-0.229-0.229h-7.571c-0.126,0-0.229,0.103-0.229,0.229V92.512z
	 M351.705,110.016c-1.512,1.588-3.482,2.393-5.857,2.393c-2.337,0-4.298-0.815-5.829-2.423c-1.532-1.608-2.31-3.69-2.31-6.188
	c0-2.496,0.777-4.559,2.309-6.129c1.53-1.569,3.492-2.365,5.83-2.365c2.374,0,4.345,0.806,5.857,2.392
	c1.514,1.592,2.281,3.665,2.281,6.161C353.986,106.354,353.219,108.426,351.705,110.016"/>
<path fill="#FFFFFF" d="M430.567,88.88h-7.571c-0.126,0-0.229,0.103-0.229,0.229v3.402c-0.999-1.293-2.261-2.326-3.76-3.075
	c-1.688-0.844-3.683-1.271-5.928-1.271c-2.806,0-5.346,0.681-7.552,2.024c-2.205,1.345-3.974,3.214-5.255,5.557
	c-0.74,1.351-1.262,2.828-1.577,4.409c1.288,0.731,2.159,2.113,2.159,3.7c0,1.579-0.861,2.953-2.138,3.688
	c0.317,1.548,0.832,2.998,1.556,4.331c1.28,2.362,3.048,4.253,5.253,5.616c2.207,1.363,4.748,2.056,7.554,2.056
	c2.527,0,4.617-0.513,6.214-1.521c1.391-0.88,2.557-1.896,3.474-3.031v3.608c0,0.126,0.103,0.229,0.229,0.229h7.571
	c0.126,0,0.229-0.103,0.229-0.229V89.109C430.796,88.982,430.693,88.88,430.567,88.88 M420.486,110.016
	c-1.512,1.588-3.482,2.393-5.857,2.393c-2.337,0-4.298-0.815-5.829-2.423c-1.532-1.608-2.31-3.69-2.31-6.188
	c0-2.496,0.776-4.559,2.309-6.129c1.53-1.569,3.492-2.365,5.83-2.365c2.374,0,4.345,0.806,5.857,2.392
	c1.513,1.592,2.281,3.664,2.281,6.161C422.768,106.354,421.999,108.426,420.486,110.016"/>
<path fill="#FFFFFF" d="M392.344,103.855c0-1.7,0.999-3.163,2.44-3.845c-0.265-3.544-1.273-6.34-3.017-8.322
	c-2.056-2.338-4.974-3.523-8.67-3.523c-2.368,0-4.458,0.531-6.21,1.577c-1.364,0.815-2.491,1.863-3.358,3.121v-3.755
	c0-0.126-0.103-0.229-0.229-0.229h-7.571c-0.126,0-0.229,0.103-0.229,0.229v29.494c0,0.126,0.103,0.229,0.229,0.229h7.571
	c0.126,0,0.229-0.103,0.229-0.229v-16.704c0-3.538,2.664-6.631,6.193-6.868c3.871-0.259,7.104,2.816,7.104,6.633l0.002,16.939
	c0,0.126,0.102,0.229,0.229,0.229h7.571c0.126,0,0.229-0.103,0.229-0.229v-10.867C393.376,107.069,392.344,105.584,392.344,103.855"
	/>
<g>
	<path fill="#FFFFFF" d="M71.336,12.594c-0.511-0.661-1.156-1.189-1.924-1.573c-0.863-0.432-1.884-0.65-3.033-0.65
		c-1.436,0-2.736,0.348-3.865,1.036c-1.129,0.688-2.033,1.645-2.689,2.843c-0.655,1.198-0.987,2.584-0.987,4.12
		c0,1.537,0.332,2.928,0.987,4.135c0.655,1.209,1.561,2.176,2.688,2.875c1.13,0.697,2.431,1.051,3.866,1.051
		c1.294,0,2.363-0.262,3.18-0.777c0.712-0.451,1.309-0.971,1.777-1.551v1.846c0,0.064,0.053,0.117,0.117,0.117h3.875
		c0.064,0,0.117-0.053,0.117-0.117V10.853c0-0.064-0.053-0.117-0.117-0.117h-3.875c-0.064,0-0.117,0.053-0.117,0.117V12.594z
		 M70.169,21.553c-0.773,0.813-1.782,1.225-2.998,1.225c-1.196,0-2.199-0.418-2.982-1.24c-0.784-0.822-1.182-1.889-1.182-3.166
		c0-1.279,0.397-2.334,1.181-3.137c0.783-0.804,1.787-1.211,2.983-1.211c1.215,0,2.224,0.412,2.998,1.225
		c0.774,0.814,1.167,1.875,1.167,3.153S70.943,20.74,70.169,21.553"/>
	<path fill="#FFFFFF" d="M52.942,12.594c-0.511-0.661-1.156-1.189-1.924-1.573c-0.863-0.432-1.885-0.65-3.034-0.65
		c-1.435,0-2.735,0.348-3.864,1.036c-1.129,0.688-2.033,1.645-2.689,2.843c-0.655,1.198-0.988,2.584-0.988,4.12
		c0,1.537,0.333,2.928,0.988,4.135c0.655,1.209,1.56,2.176,2.688,2.875c1.13,0.697,2.431,1.051,3.865,1.051
		c1.294,0,2.364-0.262,3.181-0.777c0.712-0.451,1.309-0.971,1.777-1.551v1.846c0,0.064,0.053,0.117,0.117,0.117h3.875
		c0.064,0,0.117-0.053,0.117-0.117V5.687c0-0.064-0.053-0.117-0.117-0.117H53.06c-0.064,0-0.117,0.053-0.117,0.117V12.594z
		 M51.775,21.553c-0.773,0.813-1.782,1.225-2.997,1.225c-1.197,0-2.2-0.418-2.983-1.24c-0.784-0.822-1.183-1.889-1.183-3.166
		c0-1.279,0.398-2.334,1.182-3.137c0.783-0.804,1.787-1.211,2.984-1.211c1.215,0,2.223,0.412,2.997,1.225
		c0.774,0.814,1.167,1.875,1.167,3.153S52.55,20.74,51.775,21.553"/>
	<path fill="#FFFFFF" d="M110.528,10.736h-3.875c-0.064,0-0.116,0.053-0.116,0.117v1.741c-0.512-0.661-1.157-1.189-1.925-1.573
		c-0.863-0.432-1.885-0.65-3.033-0.65c-1.436,0-2.736,0.348-3.865,1.036c-1.128,0.688-2.033,1.645-2.689,2.843
		c-0.378,0.691-0.646,1.447-0.807,2.256c0.659,0.375,1.105,1.082,1.105,1.895c0,0.807-0.441,1.512-1.095,1.887
		c0.162,0.793,0.426,1.535,0.796,2.217c0.655,1.209,1.561,2.176,2.688,2.875c1.13,0.697,2.431,1.051,3.866,1.051
		c1.294,0,2.363-0.262,3.18-0.777c0.712-0.451,1.309-0.971,1.778-1.551v1.846c0,0.064,0.052,0.117,0.116,0.117h3.875
		c0.064,0,0.117-0.053,0.117-0.117V10.853C110.646,10.789,110.593,10.736,110.528,10.736 M105.369,21.553
		c-0.773,0.813-1.782,1.225-2.998,1.225c-1.195,0-2.199-0.418-2.982-1.24c-0.784-0.822-1.182-1.889-1.182-3.166
		c0-1.279,0.396-2.334,1.181-3.137c0.783-0.804,1.788-1.211,2.983-1.211c1.216,0,2.224,0.412,2.998,1.225
		c0.774,0.814,1.168,1.875,1.168,3.153S106.144,20.74,105.369,21.553"/>
	<path fill="#FFFFFF" d="M90.967,18.4c0-0.871,0.512-1.619,1.249-1.968c-0.136-1.813-0.652-3.244-1.544-4.259
		c-1.052-1.196-2.545-1.803-4.438-1.803c-1.212,0-2.281,0.271-3.178,0.807c-0.698,0.417-1.274,0.954-1.719,1.598v-1.922
		c0-0.064-0.052-0.117-0.117-0.117h-3.874c-0.064,0-0.117,0.053-0.117,0.117v15.094c0,0.064,0.053,0.117,0.117,0.117h3.874
		c0.065,0,0.117-0.053,0.117-0.117v-8.549c0-1.81,1.363-3.394,3.17-3.515c1.98-0.133,3.635,1.441,3.635,3.394l0.001,8.67
		c0,0.064,0.053,0.117,0.117,0.117h3.875c0.064,0,0.117-0.053,0.117-0.117v-5.561C91.495,20.045,90.967,19.285,90.967,18.4"/>
	<path fill="#FFFFFF" d="M32.001,18.119c-0.04-0.904-0.43-1.661-1.027-2.123c0.598-0.463,0.984-1.22,1.024-2.124
		c0.066-1.526-0.969-3.267-3.399-3.48c-0.006-0.001-0.012-0.001-0.018-0.001c-0.001-0.009-0.001-0.017-0.002-0.024
		c-0.219-2.431-1.962-3.463-3.486-3.394c-0.904,0.041-1.66,0.43-2.122,1.027c-0.463-0.598-1.22-0.984-2.124-1.024
		c-1.527-0.065-3.267,0.969-3.48,3.399c-0.001,0.006-0.001,0.012-0.001,0.018c-0.009,0.001-0.017,0.001-0.024,0.002
		c-2.431,0.219-3.463,1.96-3.394,3.486c0.04,0.904,0.429,1.66,1.027,2.122c-0.598,0.463-0.985,1.219-1.024,2.124
		c-0.066,1.527,0.969,3.268,3.399,3.48c0.006,0.002,0.012,0.002,0.018,0.002c0.001,0.008,0.001,0.016,0.002,0.023
		c0.212,2.355,1.853,3.398,3.343,3.398c0.048,0,0.096-0.002,0.144-0.004c0.904-0.041,1.66-0.43,2.122-1.027
		c0.463,0.598,1.22,0.984,2.124,1.023c1.528,0.068,3.267-0.969,3.48-3.398c0.001-0.006,0.001-0.012,0.001-0.018
		c0.009-0.002,0.017-0.002,0.024-0.002C31.038,21.387,32.07,19.645,32.001,18.119 M20.702,7.954c0.034,0,0.068,0,0.102,0.002
		c0.808,0.035,1.678,0.519,1.678,1.498c0,0.271,0.22,0.489,0.49,0.489h0.001c0.27,0,0.489-0.22,0.489-0.489V9.453
		c-0.001-0.979,0.868-1.464,1.675-1.501c1.022-0.046,2.272,0.571,2.461,2.457c-2.005,0.248-3.583,1.746-4.623,3.101
		c-1.042-1.352-2.621-2.849-4.627-3.097C18.528,8.592,19.702,7.954,20.702,7.954 M24.632,15.41c-0.238-0.156-0.46-0.292-0.654-0.405
		c-0.115-0.196-0.252-0.421-0.411-0.663c0.889-1.229,2.268-2.655,4.001-2.937C27.286,13.139,25.859,14.519,24.632,15.41
		 M24.633,16.592c1.229,0.891,2.655,2.268,2.937,4.002c-1.733-0.281-3.113-1.707-4.005-2.936c0.156-0.238,0.291-0.461,0.405-0.654
		C24.166,16.889,24.391,16.752,24.633,16.592 M23.405,15.997c-0.039,0.078-0.092,0.176-0.153,0.288
		c-0.106,0.059-0.2,0.108-0.274,0.147c-0.077-0.04-0.176-0.093-0.288-0.153c-0.059-0.106-0.108-0.2-0.146-0.275
		c0.039-0.078,0.092-0.177,0.153-0.288c0.106-0.059,0.2-0.108,0.274-0.147c0.077,0.04,0.176,0.092,0.288,0.153
		C23.317,15.828,23.367,15.921,23.405,15.997 M21.979,14.997c-0.196,0.115-0.421,0.252-0.663,0.411
		c-1.229-0.89-2.655-2.268-2.937-4.001c1.733,0.28,3.113,1.707,4.005,2.936C22.228,14.581,22.092,14.802,21.979,14.997
		 M22.382,17.658c-0.89,1.229-2.268,2.656-4.001,2.938c0.281-1.734,1.708-3.115,2.936-4.006c0.238,0.156,0.459,0.291,0.654,0.406
		C22.086,17.191,22.223,17.416,22.382,17.658 M14.93,18.17c0.035-0.807,0.519-1.676,1.497-1.677c0.271-0.001,0.49-0.22,0.49-0.49
		v-0.001c0-0.27-0.22-0.489-0.49-0.489h-0.001c-0.979,0-1.463-0.868-1.5-1.675c-0.046-1.021,0.571-2.272,2.458-2.461
		c0.249,2.004,1.746,3.582,3.101,4.623c-1.353,1.042-2.85,2.622-3.099,4.627C15.504,20.439,14.885,19.191,14.93,18.17
		 M25.145,24.045c-0.808-0.035-1.678-0.52-1.678-1.498c-0.001-0.271-0.22-0.49-0.49-0.49h-0.001c-0.27,0-0.489,0.221-0.489,0.49l0,0
		c0.001,0.979-0.868,1.465-1.676,1.502c-1.02,0.045-2.271-0.572-2.46-2.459c2.005-0.248,3.582-1.746,4.623-3.1
		c1.041,1.352,2.621,2.85,4.627,3.098C27.413,23.471,26.163,24.09,25.145,24.045 M28.564,20.623
		c-0.249-2.004-1.746-3.582-3.101-4.623c1.353-1.041,2.85-2.621,3.099-4.627c1.882,0.188,2.501,1.436,2.456,2.456
		c-0.035,0.808-0.519,1.677-1.498,1.678c-0.27,0.001-0.489,0.22-0.489,0.49l0,0c0,0.271,0.22,0.49,0.49,0.49h0.002
		c0.978,0,1.462,0.868,1.499,1.674C31.068,19.184,30.45,20.436,28.564,20.623"/>
	<path fill="#FFFFFF" d="M22.974,2.38C15.464,2.38,9.354,8.49,9.354,16c0,7.51,6.109,13.62,13.619,13.62
		c7.511,0,13.62-6.109,13.62-13.62C36.594,8.49,30.484,2.38,22.974,2.38 M22.974,28.641c-6.969,0-12.64-5.67-12.64-12.641
		c0-6.97,5.671-12.64,12.64-12.64c6.97,0,12.641,5.67,12.641,12.64C35.614,22.971,29.943,28.641,22.974,28.641"/>
</g>
</svg>
