<?xml version="1.0" encoding="utf-8"?>
<!-- Generator: Adobe Illustrator 16.0.0, SVG Export Plug-In . SVG Version: 6.00 Build 0)  -->
<!DOCTYPE svg PUBLIC "-//W3C//DTD SVG 1.1//EN" "http://www.w3.org/Graphics/SVG/1.1/DTD/svg11.dtd">
<svg version="1.1" id="Layer_1" xmlns="http://www.w3.org/2000/svg" xmlns:xlink="http://www.w3.org/1999/xlink" x="0px" y="0px"
	 width="64px" height="64px" viewBox="0 0 64 64" enable-background="new 0 0 64 64" xml:space="preserve">
<g>
	<defs>
		<path id="SVGID_1_" d="M32.021,56.263L32.021,56.263 M32.021,56.263c0.002,0,0.002,0,0.002,0S32.022,56.263,32.021,56.263
			 M6.853,31.083c-0.001,4.434,1.157,8.763,3.36,12.578l-3.57,13.038l13.342-3.498c3.676,2.003,7.814,3.061,12.027,3.062h0.01
			c13.871,0,25.162-11.287,25.168-25.16c0.002-6.722-2.613-13.043-7.365-17.799c-4.752-4.755-11.07-7.375-17.803-7.379
			C18.148,5.925,6.858,17.211,6.853,31.083"/>
	</defs>
	<clipPath id="SVGID_2_">
		<use xlink:href="#SVGID_1_"  overflow="visible"/>
	</clipPath>
	
		<linearGradient id="SVGID_3_" gradientUnits="userSpaceOnUse" x1="-607.6758" y1="565.4297" x2="-607.5508" y2="565.4297" gradientTransform="matrix(0 -406.194 -406.194 0 229706.25 -246777.2813)">
		<stop  offset="0" style="stop-color:#20B038"/>
		<stop  offset="1" style="stop-color:#60D66A"/>
	</linearGradient>
	<rect x="6.642" y="5.925" clip-path="url(#SVGID_2_)" fill="url(#SVGID_3_)" width="50.548" height="50.774"/>
</g>
<path fill="#FFFFFF" d="M50.466,12.658c-4.922-4.926-11.467-7.64-18.441-7.644c-14.37,0-26.064,11.691-26.07,26.061
	c-0.001,4.593,1.198,9.077,3.479,13.029L5.735,57.609l13.82-3.624c3.808,2.076,8.095,3.171,12.457,3.173h0.012
	c14.369,0,26.064-11.693,26.07-26.063C58.099,24.132,55.388,17.583,50.466,12.658z M32.024,52.757h-0.008
	c-3.889-0.003-7.703-1.047-11.029-3.021l-0.792-0.469l-8.201,2.149l2.189-7.993l-0.516-0.819c-2.169-3.449-3.314-7.435-3.313-11.528
	c0.004-11.943,9.725-21.66,21.676-21.66c5.789,0.002,11.229,2.258,15.32,6.353s6.342,9.537,6.34,15.325
	C53.688,43.038,43.968,52.757,32.024,52.757z"/>
<path fill-rule="evenodd" clip-rule="evenodd" fill="#FFFFFF" d="M25.509,20.18c-0.488-1.085-1.001-1.106-1.466-1.125
	c-0.379-0.016-0.814-0.015-1.248-0.015c-0.435,0-1.14,0.163-1.737,0.815c-0.598,0.652-2.28,2.228-2.28,5.433s2.334,6.302,2.66,6.737
	c0.326,0.434,4.506,7.221,11.128,9.832c5.502,2.17,6.623,1.738,7.816,1.63c1.195-0.108,3.854-1.575,4.396-3.097
	c0.543-1.521,0.543-2.824,0.381-3.097c-0.164-0.271-0.598-0.435-1.248-0.761c-0.652-0.325-3.855-1.901-4.453-2.119
	c-0.596-0.217-1.031-0.325-1.465,0.327c-0.434,0.651-1.682,2.118-2.063,2.553c-0.379,0.435-0.76,0.489-1.41,0.163
	c-0.652-0.326-2.75-1.014-5.239-3.232c-1.937-1.727-3.244-3.859-3.624-4.511c-0.38-0.651-0.041-1.005,0.286-1.329
	c0.292-0.292,0.651-0.761,0.977-1.141c0.325-0.381,0.434-0.652,0.651-1.087s0.109-0.815-0.054-1.141
	C27.354,24.689,26.088,21.468,25.509,20.18"/>
</svg>
