<?xml version="1.0" encoding="utf-8"?>
<!-- Generator: Adobe Illustrator 16.0.0, SVG Export Plug-In . SVG Version: 6.00 Build 0)  -->
<!DOCTYPE svg PUBLIC "-//W3C//DTD SVG 1.1//EN" "http://www.w3.org/Graphics/SVG/1.1/DTD/svg11.dtd">
<svg version="1.1" id="Layer_1" xmlns="http://www.w3.org/2000/svg" xmlns:xlink="http://www.w3.org/1999/xlink" x="0px" y="0px"
	 width="120px" height="32px" viewBox="0 0 120 32" enable-background="new 0 0 120 32" xml:space="preserve">
<g>
	<path fill="#FFFFFF" d="M50.917,14.101c-0.216-0.263-0.5-0.464-0.85-0.603s-0.782-0.208-1.297-0.208
		c-0.556,0-1.009,0.122-1.359,0.363c-0.35,0.242-0.659,0.579-0.926,1.012c-0.062-0.124-0.142-0.266-0.239-0.425
		c-0.098-0.159-0.235-0.309-0.41-0.447c-0.175-0.14-0.394-0.257-0.656-0.355c-0.263-0.098-0.59-0.147-0.981-0.147
		c-0.298,0-0.576,0.039-0.833,0.116c-0.258,0.077-0.489,0.18-0.695,0.308c-0.206,0.129-0.383,0.276-0.533,0.441
		c-0.15,0.165-0.265,0.334-0.348,0.51H41.76c0-0.207-0.005-0.407-0.016-0.603c-0.01-0.195-0.015-0.669-0.015-0.865
		c-0.369-0.056-0.738,0.027-1.106-0.028c0.008,2.464,0.016,5.069,0.025,7.534h1.205v-3.521c0-0.412,0.044-0.788,0.131-1.127
		c0.088-0.34,0.222-0.633,0.402-0.88c0.179-0.247,0.412-0.437,0.694-0.571c0.284-0.133,0.621-0.201,1.012-0.201
		c0.494,0,0.849,0.167,1.065,0.502c0.216,0.335,0.324,0.904,0.324,1.707v4.092h1.205v-4.169c0-0.319,0.049-0.61,0.147-0.873
		c0.097-0.262,0.231-0.487,0.401-0.672c0.17-0.186,0.368-0.329,0.594-0.432c0.226-0.103,0.469-0.155,0.726-0.155
		c0.35,0,0.638,0.057,0.865,0.17c0.226,0.114,0.406,0.262,0.541,0.448c0.133,0.185,0.226,0.397,0.277,0.633
		c0.051,0.237,0.077,0.479,0.077,0.726v4.324h1.205v-4.386c0-0.463-0.046-0.882-0.139-1.258
		C51.288,14.683,51.134,14.363,50.917,14.101"/>
	<path fill="#FFFFFF" d="M65.152,13.149c-1.431-0.042-2.266,1.139-2.323,1.225c-0.038,0.051-0.077,0.103-0.115,0.153
		c-0.011-0.442-0.021-0.885-0.031-1.328h-1.065c-0.005,2.548-0.01,5.096-0.016,7.645h1.205v-3.521c0-0.412,0.044-0.787,0.132-1.128
		c0.087-0.339,0.221-0.633,0.401-0.88c0.179-0.247,0.411-0.437,0.694-0.571c0.283-0.134,0.62-0.201,1.012-0.201
		c0.566,0,0.982,0.175,1.251,0.525c0.268,0.349,0.401,0.828,0.401,1.436v4.34h1.204v-4.463c0.012-0.324-0.007-1.076-0.478-1.822
		C67.307,14.372,66.558,13.19,65.152,13.149"/>
	<path fill="#FFFFFF" d="M75.608,14.133c-0.305-0.324-0.667-0.571-1.089-0.741c-0.423-0.169-0.886-0.254-1.391-0.254
		c-0.535,0-1.029,0.093-1.482,0.277c-0.452,0.187-0.845,0.446-1.173,0.781c-0.33,0.333-0.587,0.736-0.772,1.204
		c-0.185,0.469-0.278,0.981-0.278,1.536c0,0.525,0.086,1.019,0.255,1.482c0.17,0.464,0.412,0.865,0.726,1.205
		c0.314,0.34,0.697,0.61,1.151,0.811c0.452,0.201,0.962,0.302,1.528,0.302c0.68,0,1.276-0.111,1.792-0.332
		c0.514-0.222,0.987-0.61,1.42-1.166l-0.911-0.711c-0.288,0.36-0.612,0.633-0.973,0.818s-0.803,0.278-1.328,0.278
		c-0.33,0-0.634-0.062-0.911-0.186c-0.278-0.123-0.521-0.291-0.726-0.502c-0.206-0.211-0.373-0.457-0.502-0.741
		c-0.129-0.282-0.204-0.579-0.225-0.888h5.838V16.92c0-0.596-0.083-1.129-0.248-1.598C76.146,14.854,75.911,14.458,75.608,14.133
		 M70.72,16.288c0.082-0.617,0.33-1.112,0.741-1.482c0.412-0.371,0.952-0.556,1.622-0.556c0.669,0,1.193,0.185,1.575,0.556
		c0.38,0.371,0.581,0.865,0.603,1.482H70.72z"/>
	<path fill="#FFFFFF" d="M80.362,18.805h-0.03l-2.239-5.667h-1.405l2.996,7.272l-0.494,1.359c-0.134,0.36-0.293,0.648-0.479,0.864
		c-0.185,0.217-0.473,0.325-0.863,0.325c-0.176,0-0.33-0.008-0.464-0.023c-0.135-0.016-0.263-0.05-0.387-0.101l-0.154,1.05
		c0.165,0.082,0.343,0.135,0.533,0.155s0.373,0.03,0.548,0.03c0.36,0,0.667-0.049,0.919-0.146c0.252-0.099,0.469-0.236,0.649-0.417
		c0.179-0.18,0.334-0.396,0.463-0.649c0.129-0.251,0.255-0.532,0.378-0.841l3.49-8.879H82.51L80.362,18.805z"/>
	<path fill="#FFFFFF" d="M91.499,14.219c-0.329-0.34-0.729-0.604-1.196-0.795c-0.469-0.19-0.986-0.286-1.552-0.286
		c-0.525,0-1.007,0.108-1.444,0.324c-0.438,0.216-0.821,0.52-1.151,0.911h-0.03v-1.189h-1.204V24.07h1.204v-4.803h0.03
		c0.227,0.412,0.585,0.76,1.074,1.043s1.058,0.425,1.707,0.425c0.503,0,0.978-0.096,1.42-0.286c0.442-0.189,0.826-0.455,1.15-0.795
		s0.579-0.741,0.765-1.204c0.186-0.464,0.277-0.969,0.277-1.514c0-0.545-0.092-1.05-0.277-1.513
		C92.086,14.96,91.828,14.559,91.499,14.219 M91.074,17.994c-0.118,0.324-0.291,0.607-0.518,0.85
		c-0.226,0.241-0.496,0.432-0.811,0.571c-0.313,0.139-0.666,0.208-1.058,0.208c-0.391,0-0.744-0.069-1.058-0.208
		c-0.313-0.14-0.584-0.33-0.811-0.571c-0.227-0.242-0.399-0.525-0.518-0.85c-0.118-0.325-0.178-0.677-0.178-1.058
		c0-0.38,0.06-0.733,0.178-1.057c0.118-0.325,0.291-0.607,0.518-0.85c0.227-0.242,0.497-0.432,0.811-0.571s0.667-0.208,1.058-0.208
		c0.392,0,0.744,0.069,1.058,0.208c0.314,0.139,0.585,0.33,0.811,0.571c0.227,0.242,0.399,0.525,0.518,0.85
		c0.119,0.324,0.178,0.677,0.178,1.057C91.252,17.317,91.193,17.669,91.074,17.994"/>
	<path fill="#FFFFFF" d="M99.902,14.203c-0.34-0.334-0.746-0.595-1.221-0.78c-0.473-0.185-0.987-0.277-1.544-0.277
		c-0.556,0-1.07,0.092-1.544,0.277c-0.474,0.186-0.88,0.446-1.22,0.78c-0.34,0.335-0.608,0.734-0.803,1.197
		c-0.196,0.463-0.294,0.979-0.294,1.543c0,0.567,0.098,1.081,0.294,1.545c0.194,0.463,0.463,0.861,0.803,1.196
		s0.746,0.596,1.22,0.779c0.474,0.187,0.988,0.279,1.544,0.279c0.557,0,1.071-0.093,1.544-0.279
		c0.475-0.184,0.881-0.444,1.221-0.779s0.607-0.733,0.803-1.196c0.195-0.464,0.294-0.978,0.294-1.545
		c0-0.565-0.099-1.08-0.294-1.543C100.51,14.937,100.242,14.538,99.902,14.203 M99.524,18.002c-0.119,0.324-0.292,0.607-0.518,0.85
		c-0.227,0.241-0.497,0.432-0.811,0.571c-0.314,0.139-0.667,0.208-1.059,0.208c-0.391,0-0.743-0.069-1.058-0.208
		c-0.314-0.14-0.584-0.33-0.811-0.571c-0.227-0.242-0.399-0.525-0.518-0.85c-0.118-0.325-0.178-0.677-0.178-1.059
		c0-0.38,0.06-0.733,0.178-1.057c0.118-0.324,0.291-0.607,0.518-0.85c0.227-0.242,0.496-0.432,0.811-0.571s0.667-0.208,1.058-0.208
		c0.392,0,0.744,0.069,1.059,0.208c0.313,0.139,0.584,0.33,0.811,0.571c0.226,0.243,0.398,0.525,0.518,0.85
		c0.117,0.324,0.177,0.677,0.177,1.057C99.701,17.325,99.642,17.677,99.524,18.002"/>
	<path fill="#FFFFFF" d="M59.179,14.203c-0.339-0.334-0.747-0.595-1.22-0.78c-0.474-0.185-0.988-0.277-1.544-0.277
		c-0.556,0-1.071,0.092-1.544,0.277c-0.474,0.186-0.88,0.446-1.22,0.78c-0.339,0.335-0.607,0.734-0.803,1.197
		c-0.196,0.463-0.293,0.979-0.293,1.543c0,0.567,0.097,1.081,0.293,1.545c0.195,0.463,0.463,0.861,0.803,1.196
		c0.34,0.335,0.746,0.596,1.22,0.779c0.473,0.187,0.988,0.279,1.544,0.279c0.557,0,1.071-0.093,1.544-0.279
		c0.473-0.184,0.88-0.444,1.22-0.779c0.34-0.335,0.608-0.733,0.803-1.196c0.196-0.464,0.293-0.978,0.293-1.545
		c0-0.565-0.097-1.08-0.293-1.543C59.787,14.937,59.519,14.538,59.179,14.203 M58.8,18.002c-0.118,0.324-0.291,0.607-0.517,0.85
		c-0.227,0.241-0.497,0.432-0.812,0.571c-0.314,0.139-0.667,0.208-1.058,0.208s-0.744-0.069-1.057-0.208
		c-0.314-0.14-0.585-0.33-0.812-0.571c-0.226-0.242-0.399-0.525-0.517-0.85c-0.119-0.325-0.178-0.677-0.178-1.059
		c0-0.38,0.059-0.733,0.178-1.057c0.118-0.324,0.291-0.607,0.517-0.85c0.227-0.242,0.497-0.432,0.812-0.571
		c0.313-0.139,0.666-0.208,1.057-0.208s0.744,0.069,1.058,0.208c0.314,0.139,0.584,0.33,0.812,0.571
		c0.226,0.243,0.399,0.525,0.517,0.85c0.119,0.324,0.178,0.677,0.178,1.057C58.978,17.325,58.919,17.677,58.8,18.002"/>
	<path fill="#FFFFFF" d="M108.589,14.203c-0.339-0.334-0.746-0.595-1.219-0.78c-0.475-0.185-0.989-0.277-1.545-0.277
		s-1.071,0.092-1.544,0.277c-0.474,0.186-0.881,0.446-1.221,0.78c-0.339,0.335-0.606,0.734-0.803,1.197
		c-0.195,0.463-0.293,0.979-0.293,1.543c0,0.567,0.098,1.081,0.293,1.545c0.196,0.463,0.464,0.861,0.803,1.196
		c0.34,0.335,0.747,0.596,1.221,0.779c0.473,0.187,0.988,0.279,1.544,0.279s1.07-0.093,1.545-0.279
		c0.473-0.184,0.88-0.444,1.219-0.779c0.34-0.335,0.608-0.733,0.804-1.196c0.195-0.464,0.293-0.978,0.293-1.545
		c0-0.565-0.098-1.08-0.293-1.543C109.197,14.937,108.929,14.538,108.589,14.203 M108.211,18.002
		c-0.119,0.324-0.29,0.607-0.517,0.85c-0.228,0.241-0.497,0.432-0.812,0.571c-0.314,0.139-0.667,0.208-1.058,0.208
		c-0.392,0-0.744-0.069-1.058-0.208c-0.313-0.14-0.585-0.33-0.811-0.571c-0.227-0.242-0.399-0.525-0.518-0.85
		c-0.118-0.325-0.177-0.677-0.177-1.059c0-0.38,0.059-0.733,0.177-1.057c0.118-0.324,0.291-0.607,0.518-0.85
		c0.226-0.242,0.497-0.432,0.811-0.571s0.666-0.208,1.058-0.208c0.391,0,0.743,0.069,1.058,0.208s0.584,0.33,0.812,0.571
		c0.227,0.243,0.397,0.525,0.517,0.85c0.119,0.324,0.178,0.677,0.178,1.057C108.389,17.325,108.33,17.677,108.211,18.002"/>
	<rect x="111.142" y="9.393" fill="#FFFFFF" width="1.323" height="11.35"/>
	<path fill="#FFFFFF" d="M21.155,2.38c-7.522,0-13.62,6.098-13.62,13.62s6.098,13.62,13.62,13.62c7.522,0,13.62-6.098,13.62-13.62
		S28.677,2.38,21.155,2.38 M21.155,27.617c-6.417,0-11.618-5.201-11.618-11.617c0-6.417,5.201-11.618,11.618-11.618
		S32.773,9.583,32.773,16C32.773,22.416,27.571,27.617,21.155,27.617"/>
	<path fill="#FFFFFF" d="M21.155,6.089c-5.473,0-9.91,4.437-9.91,9.911c0,5.473,4.437,9.91,9.91,9.91
		c5.474,0,9.911-4.438,9.911-9.91C31.065,10.526,26.628,6.089,21.155,6.089 M26.801,19.799h-2.239v-4.224
		c0-0.338-0.073-0.629-0.217-0.873c-0.145-0.244-0.4-0.366-0.769-0.366c-0.259,0-0.476,0.042-0.65,0.127s-0.313,0.202-0.417,0.351
		c-0.105,0.148-0.179,0.324-0.225,0.521c-0.044,0.2-0.066,0.409-0.066,0.628v3.835h-2.239v-3.835c0-0.13-0.005-0.289-0.015-0.479
		c-0.01-0.188-0.044-0.368-0.104-0.537c-0.06-0.169-0.157-0.313-0.291-0.433c-0.134-0.12-0.332-0.179-0.59-0.179
		c-0.289,0-0.522,0.052-0.701,0.157c-0.18,0.104-0.316,0.244-0.411,0.417c-0.095,0.174-0.157,0.372-0.187,0.59
		c-0.029,0.219-0.044,0.447-0.044,0.687v3.612h-2.239v-7.254h2.149v0.985h0.03c0.069-0.139,0.169-0.279,0.299-0.418
		c0.129-0.139,0.284-0.264,0.463-0.373c0.179-0.109,0.383-0.199,0.611-0.269c0.229-0.069,0.479-0.104,0.747-0.104
		c0.508,0,0.958,0.104,1.351,0.313c0.394,0.209,0.689,0.537,0.889,0.985c0.259-0.468,0.572-0.802,0.94-1.001
		c0.368-0.199,0.822-0.298,1.359-0.298c0.487,0,0.898,0.082,1.231,0.246c0.333,0.164,0.597,0.388,0.792,0.672
		c0.194,0.284,0.333,0.617,0.417,1c0.084,0.383,0.127,0.794,0.127,1.231V19.799z"/>
</g>
</svg>
